<svg xmlns="http://www.w3.org/2000/svg" viewBox="0 0 63.72 75.91"><defs><style>.cls-1{fill:#231f20;}</style></defs><g id="Layer_2" data-name="Layer 2"><g id="Layer_2-2" data-name="Layer 2"><rect class="cls-1" x="29.45" width="7.71" height="50.52"/><path class="cls-1" d="M23.88,18.25V0h3.84V22.56c0,27.66-24.46,28-24.46,28v-8S23.88,37.11,23.88,18.25Z"/><path class="cls-1" d="M42.73,18.25V0H38.89V22.56c0,27.66,24.46,28,24.46,28v-8S42.73,37.11,42.73,18.25Z"/><polygon class="cls-1" points="27.89 54.73 14.93 54.73 14.93 58.05 19.62 58.05 19.62 75.91 23.29 75.91 23.29 58.05 27.89 58.05 27.89 54.73"/><rect class="cls-1" x="60.14" y="54.75" width="3.58" height="21.16"/><path class="cls-1" d="M12.62,75.91H16.8l-6-19.22c-1-3.2-4.43-3.18-5.37,0L0,75.91H3.81l1.42-5.06h5.95ZM6.14,67.69l2.05-7.14,2.08,7.14Z"/><path class="cls-1" d="M38.94,75.91h4.18l-6-19.22c-1-3.2-4.44-3.18-5.38,0L26.31,75.91h3.81l1.42-5.06h6Zm-6.49-8.22,2-7.14,2.08,7.14Z"/><path class="cls-1" d="M53.91,75.91h4l-4.61-7.34c-.7-1.1.22-1.36.22-1.36,7.16-2.77,4.3-12.65-1.41-12.65H47.47c-3.13,0-3.28,3.82-3.28,3.82l.08,17.53h3.59V58.29c0-.36.72-.51.72-.51,5.93-.68,6.2,5.22,3.37,6.31,0,0-5,1.2-2.26,5.21Z"/></g></g></svg>