<svg xmlns="http://www.w3.org/2000/svg" xmlns:xlink="http://www.w3.org/1999/xlink" viewBox="0 0 508.71 411"><defs><style>.cls-1,.cls-2,.cls-3{fill-rule:evenodd;}.cls-1{fill:url(#linear-gradient);}.cls-2{fill:url(#linear-gradient-2);}.cls-3{fill:url(#linear-gradient-3);}</style><linearGradient id="linear-gradient" x1="106.28" x2="106.28" y2="410.84" gradientUnits="userSpaceOnUse"><stop offset="0" stop-color="#e52588"/><stop offset="0.04" stop-color="#e22588"/><stop offset="0.07" stop-color="#d72688"/><stop offset="0.1" stop-color="#c62889"/><stop offset="0.13" stop-color="#ae2b8a"/><stop offset="0.15" stop-color="#8e2e8b"/><stop offset="0.18" stop-color="#68338c"/><stop offset="0.2" stop-color="#40378d"/><stop offset="0.39" stop-color="#00acd8"/><stop offset="0.44" stop-color="#00acd5"/><stop offset="0.47" stop-color="#00abcb"/><stop offset="0.51" stop-color="#00a9bb"/><stop offset="0.54" stop-color="#00a7a3"/><stop offset="0.56" stop-color="#00a485"/><stop offset="0.59" stop-color="#00a061"/><stop offset="0.6" stop-color="#009f54"/><stop offset="0.62" stop-color="#1da751"/><stop offset="0.69" stop-color="#7cc247"/><stop offset="0.74" stop-color="#c2d540"/><stop offset="0.78" stop-color="#ede13c"/><stop offset="0.8" stop-color="#fee63a"/><stop offset="0.8" stop-color="#fde23a"/><stop offset="0.83" stop-color="#f7b537"/><stop offset="0.85" stop-color="#f28e35"/><stop offset="0.88" stop-color="#ee6e33"/><stop offset="0.9" stop-color="#ea5632"/><stop offset="0.93" stop-color="#e84531"/><stop offset="0.96" stop-color="#e63a30"/><stop offset="1" stop-color="#e63730"/></linearGradient><linearGradient id="linear-gradient-2" x1="402.43" x2="402.43" y2="410.84" xlink:href="#linear-gradient"/><linearGradient id="linear-gradient-3" x1="254.31" x2="254.31" y2="411" xlink:href="#linear-gradient"/></defs><g id="Layer_2" data-name="Layer 2"><g id="Layer_1-2" data-name="Layer 1"><path class="cls-1" d="M212.41,0H168.24V124.11c0,104.21-71.47,191.73-168.08,216.22L0,410.84c120.6-20,212.68-125,212.56-251.08L212.41,0Z"/><path class="cls-2" d="M296.3,0l-.15,159.76c-.12,126.1,92,231.08,212.56,251.08l-.17-70.51c-96.6-24.49-168.07-112-168.07-216.22V0Z"/><polygon class="cls-3" points="222.74 0 285.88 0 285.88 411 222.74 411 222.74 0 222.74 0"/></g></g></svg>