<svg xmlns="http://www.w3.org/2000/svg" viewBox="0 0 759.19 204.85"><g id="Layer_2" data-name="Layer 2"><path d="M278.34,90.17a200.66,200.66,0,0,1-20.95,25.47,132.8,132.8,0,0,1,6-25.47,194.86,194.86,0,0,1,7.6-18.7q2.46-5.32,8.42-16.42a122.33,122.33,0,0,1,15.92-22.5q10-11.4,13.66-11.4c1.09,0,1.64.82,1.64,2.46q0,6-8.42,23.83-7.4,15.62-15.82,30Zm53-.16a86.76,86.76,0,0,1-10.07,13.56,117.59,117.59,0,0,1-13.35,12.53A123,123,0,0,1,311,101.93,94.65,94.65,0,0,1,315.52,90l6.17-12.53a196.81,196.81,0,0,1,13.76-20.54q8-10.27,11.3-10.27c1.5,0,2.26,1,2.26,3.08q0,3.9-4.93,15-3.91,8.63-8.63,17.66Zm80.87.16,5.41-10.89c.54-1,0-1.67-1.65-2.15a24.17,24.17,0,0,0-6.57-.72,42.48,42.48,0,0,0-5.35.31,4.41,4.41,0,0,0-3.28,1.53L395,90.17q-3.7,7.18-7.8,14.48t-9,14.69q-7,10.48-11.51,14.17a14.73,14.73,0,0,1-9.45,3.7q-3.29,0-3.29-3.9,0-4.73,4.32-14,2.65-6,7.6-15,4.09-7.61,8-14.17c2.05-3.56,3.84-6.71,5.34-9.45a27.33,27.33,0,0,0,1.44-2.87c.55-1.24.07-2.09-1.44-2.57a21,21,0,0,0-6.16-.72,24.3,24.3,0,0,0-5.24.62c-1.84.41-2.91.82-3.18,1.23L356.2,90.17q-4.12,6.57-7.4,12.32-4.11,7.2-7.6,14.38L340,119.34q-5.55,10.68-10.89,15.41t-10.27,4.72q-5.55,0-7.7-2.67a10.11,10.11,0,0,1-2.16-6.57,11.49,11.49,0,0,1,.2-2.47,78.81,78.81,0,0,0,11.1-8.42,114.27,114.27,0,0,0,12.94-14.18q5.34-7,10.48-15a158.22,158.22,0,0,0,12.21-24.34q5-12.63,5-21.47c0-3.83-.72-6.7-2.15-8.63s-3.87-2.87-7.3-2.87q-7.8,0-22.59,15.4a150.29,150.29,0,0,0-24.44,33.49l-4.32,8.42a104.47,104.47,0,0,0-9.25,29.17l-1.43,12.73a45.57,45.57,0,0,1-8.63,7q-6.37,4.09-10.48,4.1c-4.1,0-7.26-1.4-9.44-4.21a14.78,14.78,0,0,1-3.29-9.34l11.09-10.27q7.6-7.61,13.24-14.48t11-14.69q3.29-4.92,5.44-8.32t4.42-7.29a204.22,204.22,0,0,0,12.93-25.47q6.79-16.44,6.79-26.91,0-6.16-2.57-9.55t-8.52-3.39q-12.33,0-30.2,20.64a191.12,191.12,0,0,0-27.94,43.55q-2.06,4.53-3.8,8.77c-1.17,2.82-2.29,5.6-3.39,8.36q-3.08,8.67-4.72,15.37a58.19,58.19,0,0,0-1.64,13.93,48.61,48.61,0,0,0-.42,6.09v5.89q-1.63,2.13-8.21,6.7c-4.39,3.05-7.6,4.58-9.66,4.58a9.82,9.82,0,0,1-4.62-.93,3.14,3.14,0,0,1-1.75-3,11.68,11.68,0,0,1,.41-2.26q1.65-5.35,3.09-8.85c.55-1.51,1.77-4.46,3.69-8.86l8.22-18.74c.27-1-.48-1.68-2.26-2.15a26.59,26.59,0,0,0-6.77-.72c-4.38,0-6.92.47-7.6,1.43-1.22,2.33-2.94,5.46-5.13,9.37s-4.31,7.52-6.36,10.81a116.12,116.12,0,0,1-11.7,16.26q-6.76,7.62-11.28,7.63c-2.47,0-4-.82-4.62-2.46a16.13,16.13,0,0,1-.92-5.73,41,41,0,0,1,3.59-15.86A72.11,72.11,0,0,1,186.87,103a70.72,70.72,0,0,1,12.42-12.69q7.59-5.92,12.51-5.93a6.8,6.8,0,0,1,1.75.2c.48.13.85.87,1.13,2.2a5.44,5.44,0,0,0,1.64,3.09,8.58,8.58,0,0,0,3.18,1.69,19.3,19.3,0,0,0,5.44.6,7.75,7.75,0,0,0,4.72-2Q233.35,86.85,233,83q0-10.23-12.74-10.24A45.84,45.84,0,0,0,200,77.45a78.7,78.7,0,0,0-18.58,12.72A89.89,89.89,0,0,0,169,104a94.09,94.09,0,0,0-8.93,15.3Q156,129.2,156,136a30.21,30.21,0,0,0,2.45,12.73q3.47,8.42,13.08,8.42a25.07,25.07,0,0,0,10-1.94,34.69,34.69,0,0,0,9.41-6.44l3.67-3.68,1.85,3.49a24.28,24.28,0,0,0,7,7.81,16.4,16.4,0,0,0,9.66,2.88q11.93,0,24.06-10.69l3.9-3.49,2.06,3.49a25.16,25.16,0,0,0,7.19,7.71A16.93,16.93,0,0,0,260,159a31.7,31.7,0,0,0,12.43-3A61.5,61.5,0,0,0,285,148.76a17.49,17.49,0,0,0,3.28-2.72c1.1-1.12,2.06-2.1,2.88-2.92a35.54,35.54,0,0,0,3.7,5.74q5.78,7.2,14.19,7.19a23,23,0,0,0,8.94-2,45.28,45.28,0,0,0,9.15-5.24,51.67,51.67,0,0,0,8.84-8.47,22.34,22.34,0,0,0,4.11,8.24,11.3,11.3,0,0,0,9.05,3.82q5.55,0,13-3.85a39,39,0,0,0,9.24-6.66l-3.73,6.75-22.05,41.55a15.66,15.66,0,0,0-2.34,7.41c0,2.66,1.37,4.8,4.11,6.4a5.88,5.88,0,0,0,2.87.8c2.19,0,4.32-1.13,6.37-3.4q2.46-2.59,5.76-9.19l20.91-43.67,14.37-29.37Z"/><path d="M148.29,102.38a70,70,0,0,0-15.67-12.22V88.52l48.15-16Q203,60.17,203,37.18q0-18.69-14.2-27.94T149.11,0Q111.89,0,72.6,24.65,31.07,50.74,11.72,90.37a119.4,119.4,0,0,0-6.07,14.37,132.74,132.74,0,0,0-4.21,14.78L0,127.74v5.13a37.85,37.85,0,0,0,3.49,16,38.62,38.62,0,0,0,14.28,16.74,37.21,37.21,0,0,0,20.85,6.26,38.87,38.87,0,0,0,15.3-3.19,53,53,0,0,0,14.9-10,59.93,59.93,0,0,0,8.62-9.89,128.65,128.65,0,0,0,11.1-17.73q1.23-2.69,5.54-11.74L103,99.64l4.51-9.47q15.21-34,24.15-45.27a44.2,44.2,0,0,1,11-10c5.67-3.41,8.45-5.66,8.31-6.76-.14-1.36-1.43-2-3.88-2a27.84,27.84,0,0,0-9.1,1.84,66.44,66.44,0,0,0-10.33,4.71q-9.4,5.32-20.86,22.73-4.69,7.19-15.33,27L87.7,90,74.9,119.31q-8,18.33-16.46,29.47a41.67,41.67,0,0,1-10.59,10,21.59,21.59,0,0,1-11.63,3.4q-13,0-17.07-13.33A52.41,52.41,0,0,1,17.5,134.9a61.2,61.2,0,0,1,2.26-15.38Q23.45,106.4,32.7,90.81a211.4,211.4,0,0,1,22-30.35,204.54,204.54,0,0,1,26.5-25.84q17-13.74,33.16-20.1A88.28,88.28,0,0,1,146.9,8.17q34.71,0,34.72,24.5,0,18-15.73,29.13-5.12,3.72-29.22,14.25Q121,82.88,121,90.31q5.68,7.64,11.39,15.08,5.08,6.83,5.09,13v1.24q0,10.53-8.69,18.34a42.19,42.19,0,0,1-21.28,10.07c1-1.51,1.43-3.76,1.43-6.77a12.76,12.76,0,0,0-2.36-6.48,7.79,7.79,0,0,0-5.64-3,8.21,8.21,0,0,0-7.49,2.74,11.1,11.1,0,0,0-3.18,7.86A14.62,14.62,0,0,0,92,149.27q1.74,3.36,6.48,5.6t13.59,2.25A39.73,39.73,0,0,0,123.79,155a56.09,56.09,0,0,0,13-6.06,40.79,40.79,0,0,0,12.35-11.09,25.4,25.4,0,0,0,5.15-15v-3.29Q154.27,108.85,148.29,102.38Z"/><path d="M682.59,22.07a76.77,76.77,0,0,0-20.3,2.79H370.91a6.51,6.51,0,0,0-6,4c6.37,2.67,13.39,5.7,20.87,9.12l234.42,0a6.18,6.18,0,0,1,.14,12.36H429.13a6.48,6.48,0,0,0-6.41,6.1q6.09,3.36,12.22,7l170,.08a6.2,6.2,0,0,1,0,12.39L469.07,76a6.46,6.46,0,0,0-6.34,5.75q4.95,3.57,9.76,7.35H600a6.16,6.16,0,0,1,6.11,6.19v0a6.15,6.15,0,0,1-6,6.17H499.31a6.43,6.43,0,0,0-6.12,4.65c2.85,2.75,5.59,5.57,8.27,8.44l101.54.06a6.2,6.2,0,0,1,0,12.4l-82.12,0a6.48,6.48,0,0,0-5.9,3.86c2.23,3,4.32,6.09,6.33,9.23h97.34a76.63,76.63,0,0,0,63.94,34.24c42.3,0,76.6-34.09,76.6-76.14S724.89,22.07,682.59,22.07Zm0,132.33a55.94,55.94,0,0,1-37.3-14.18h9a4.92,4.92,0,0,0,5.06-4,51,51,0,0,1-6.92-5H637.12A56,56,0,0,1,628.94,115h4.21a4.69,4.69,0,1,0,0-9.38h-6.21a52.94,52.94,0,0,1,.24-16.6h6.34a4.7,4.7,0,0,0,0-9.39h-3.93a56.51,56.51,0,0,1,9-16.24h13.89a50.7,50.7,0,0,1,8.48-5.9,5.82,5.82,0,0,0-5.49-3.12h-7.89a56.17,56.17,0,1,1,35,100.07Z"/></g></svg>