<svg xmlns="http://www.w3.org/2000/svg" viewBox="0 0 74.53 733.01"><defs><style>.cls-1,.cls-3{fill:#231f20;}.cls-2{fill:#fff;stroke:#231f20;stroke-width:0.58px;}.cls-3{font-size:12.54px;font-family:Helvetica;}</style></defs><g id="Layer_2" data-name="Layer 2"><g id="Layer_2-2" data-name="Layer 2"><path class="cls-1" d="M68.39,577.9c0,5.79-4,7.07-4,7.07L1.24,612.78v16.75l64.53,26.89s2.62,1,2.62,6.15h6.14V638.9H68.39c0,6-4,4.15-4,4.15l-16.9-7.14V610.27l15.58-6.89s5.32-1.9,5.32,3.41h6.14V577.9ZM38,631.89l-20.13-8.51L38,614.48Z"/><path class="cls-1" d="M51,551.4s-4.3-43.72-30-43.72c-19.77,0-19.69,28.64-19.69,28.64v37.22H8.07s.08-5,5.84-5H63.37s5-.17,5,5h6.14V546.18H68.39c0,5.41-4,5.22-4,5.22Zm-39.45,0V537.68s-.3-12.56,10.26-12.56c17.44,0,19.48,26.28,19.48,26.28Z"/><path class="cls-1" d="M68.39,0c0,5.79-4,7.07-4,7.07L1.24,34.88V51.63L65.77,78.52s2.62,1,2.62,6.14h6.14V61H68.39c0,6-4,4.15-4,4.15L47.49,58V32.37l15.58-6.89s5.32-1.9,5.32,3.41h6.14V0ZM38,54l-20.13-8.5L38,36.58Z"/><path class="cls-1" d="M1.24,344.2V317.54L29.88,306.7,1.24,296V269H7.38c0,4.76,4.33,4,4.33,4l51.52-7.66s5.16-.69,5.16-5.85h6.14v28.68H68.39c0-5.21-5.76-4.39-5.76-4.39l-38.85,6L54.72,302v14.54l-30.94,11.8,38.76,7.55s5.85,1.1,5.85-4.25h6.14v23.6s-6.14.06-6.14,0a6.09,6.09,0,0,0-4.75-6.18l-50.9-9.52s-5.29-1.27-5.29,4.62Z"/><path class="cls-1" d="M1.24,217.21v-27.1h5.1s6.21,16.71,29.14,16.71C64.39,206.87,63,190.11,63,190.11v-14H11.69s-5.35-.18-5.35,4.79H1.24V154.71h5.1c0,4.26,3.51,4.07,3.51,4.07H64.39a3.71,3.71,0,0,0,4-4c0-.07,6.14,0,6.14,0v35.32s.74,33.77-36.57,33.82c-13.06-.05-27.29-10.13-27.29-10.13s-4.33-3.37-4.33,3.41Z"/><path class="cls-1" d="M1.24,392.56s0,42.17,36.72,42.12,36.57-42.12,36.57-42.12,0-42.15-36.57-42.2S1.24,392.56,1.24,392.56Zm63.15,0s0,23.31-26.43,23.26-26.65-23.26-26.65-23.26.39-24,26.65-24S64.39,392.56,64.39,392.56Z"/><path class="cls-1" d="M15.45,662.53l14.77,12.73-4,4.88s-9.32-5.32-11.49,3.51c0,0-8.74,28.57,19.07,28.57,29.35,0,31.5-31.06,31.5-31.06,1.31-9.34-7-9.1-7-9.1v-6.23s14-.05,15.13,0S78.77,718.54,45,731.45c-14.3,5.47-43.8-2.76-43.8-36.25C1.24,673.53,15.45,662.53,15.45,662.53Z"/><path class="cls-1" d="M15.45,433.38l14.77,12.73-4,4.88s-9.32-5.32-11.49,3.51c0,0-8.74,28.56,19.07,28.56,29.35,0,31.5-31.05,31.5-31.05,1.31-9.34-7-9.1-7-9.1v-6.23s14-.05,15.13,0S78.77,489.38,45,502.3c-14.3,5.47-43.8-2.76-43.8-36.25C1.24,444.38,15.45,433.38,15.45,433.38Z"/><path class="cls-2" d="M8,249.07A7.06,7.06,0,1,1,1,256.13,7.06,7.06,0,0,1,8,249.07Z"/><text class="cls-3" transform="translate(12.45 260.66) rotate(-90)">R</text><path class="cls-1" d="M56.87,148.42,47,134l4.38-4s13.06,7.95,13.06-15c0-16.34-8.63-15.5-8.63-15.5-17.18,0-6.69,45.07-33.7,45.07C11.83,144.56,0,136.76,0,115S15.6,84.58,15.6,84.58L25.67,95.41l-4,6S9.39,97.08,9.39,115c0,14.3,8.41,13,8.41,13,14.74,0,5.69-44.87,36.05-44.87,0,0,20.68-.41,20.68,31.87C74.53,143.44,56.87,148.42,56.87,148.42Z"/></g></g></svg>