<svg xmlns="http://www.w3.org/2000/svg" viewBox="0 0 507.52 96.29"><defs><style>.cls-1{fill:#2957a4;}.cls-2{fill:#fdcd2d;}</style></defs><g id="Layer_2" data-name="Layer 2"><path class="cls-1" d="M364.12,0c18.23,0,34.54,9.31,43.44,23.5V2.87H450.3L453.41,13l3.5-10.15L500,3.1V20c-2.31.67-3.27,1.83-3.28,3.48.95,6.5,7.45,49.39,7.26,49.31.54,3.39,1.44,4.17,3.53,4.87V94.28h-44V77.21H438l-.16-.47V94.28h-39V83.13a51.93,51.93,0,0,1-34.72,13.16,51.46,51.46,0,0,1-41-20l0,17-7.37,1c-42.18,5.42-73.42-13.68-76.47-40.55A55.5,55.5,0,0,1,223,65.18a95.6,95.6,0,0,1-15.34,5.74c0,3,1.64,5,3.82,5.07V95H65.7C26.26,95-.32,76.31,0,48.86.28,25,11.06,8.3,37,1.91A45,45,0,0,1,73.46,8a49.65,49.65,0,0,1,9.22,7.88c2.27,2.47,7.09,9.94,7.09,9.94L65.29,51.09,50.15,38.43l3.13-6c-.13-.19-.27-.92-.59-1.24a12.09,12.09,0,0,0-2.41-1.75c-.35-.08-13.2-2.3-12.6,15.74S53.9,66.47,59.23,66c1.58-.14,6.41-2.94,7.32-7.56h17.5l0,14.43q.93,1,2.37-.6L112,2.76h30.8l28.5,73.68s0-52,0-51.11c-.2-3.82-1.75-4.3-4.64-5V2.17l48.85-.07c8.14,0,24.87,4.29,30.48,19.5,5.84-9.39,15.57-16.14,30-19.69a45,45,0,0,1,36.51,6,49.32,49.32,0,0,1,9.22,7.88,32.82,32.82,0,0,1,2.33,3A51.55,51.55,0,0,1,364.12,0Z"/><path class="cls-2" d="M416,11.31h28.08l8.86,29,10-29H491.4v5.37A3.57,3.57,0,0,0,488,20.86s8.11,55.28,8.6,57.08,2.79,2.45,2.79,2.45v5.45h-27.4V80.39c3.27-.49,4.76-1.66,4.52-3.91L470.11,35.2,457.94,68.77H444.06L432.47,35.2S426,75.41,426,77.94s3.42,2.45,3.42,2.45v5.45H407.28V80.39c2.69.49,4.13-4.25,4.13-4.25s8.4-50.93,8.65-55.18S416,17,416,17V11.31Z"/><path class="cls-2" d="M342,48.15c0,15.27,9.91,27.65,22.14,27.65s22.15-12.38,22.15-27.65-9.92-27.66-22.15-27.66S342,32.87,342,48.15Zm-19.94,0c0-21.94,18.84-39.71,42.08-39.71s42.09,17.77,42.09,39.71-18.84,39.7-42.09,39.7S322,70.08,322,48.15Z"/><path class="cls-2" d="M303.61,39.58,299.7,36.3c4.93-9.48-5.67-14.56-8.86-15.4s-23.57-3-22.66,24.54c.84,25.33,23.52,29.61,30.73,29a11.9,11.9,0,0,0,10.42-7.65h5.23l0,19.11C272,91.34,247.12,70.54,247.38,49c.24-20.39,8.72-33.48,30.52-38.86C304,3.65,318,24.72,318,24.72L303.61,39.58Z"/><path class="cls-2" d="M199,22.67v30S220,48.56,220,32.15c0-12.38-19.48-9.24-20.94-9.48ZM175.14,10.59l40.42-.05c8.26,0,23.75,5.07,23.91,22C239.7,56.92,199,64.35,199,64.35V76.56c0,3.1,4,3.79,4,3.79v5l-27,.07v-5c1.72,0,3.76-1.92,3.76-2.95V18.94c-.24-2.44-4.61-3.52-4.61-3.52V10.59Z"/><path class="cls-2" d="M124.36,29.12,117.17,49H131.3l-6.94-19.84ZM136,60.79H113.26s-4.76,13.87-5,15.33c-.69,3.58,3.36,4.23,3.36,4.23v5.17H88.92V80.35c2.93-.73,4.3-1.54,5-4.1l23.94-65H137s24.53,64,25.47,66.15a5.14,5.14,0,0,0,3.88,3v5.17h-28V80.35c1,.25,4.17-1.52,2.62-5.61L136,60.79Z"/><path class="cls-2" d="M64.68,39.58,60.77,36.3c4.92-9.48-5.68-14.56-8.86-15.4s-23.58-3-22.67,24.54c.84,25.33,23.52,29.61,30.74,29A11.92,11.92,0,0,0,70.4,66.75h5.22l0,19.11C33,91.34,8.19,70.54,8.44,49,8.68,28.57,17.17,15.48,39,10.1,65.1,3.65,79.05,24.72,79.05,24.72L64.68,39.58Z"/></g></svg>