<svg xmlns="http://www.w3.org/2000/svg" viewBox="0 0 178.67 73.84"><defs><style>.cls-1{fill:#231f20;}.cls-2{fill:#fd0;}.cls-3{font-size:8.6px;font-family:Helvetica;}.cls-3,.cls-4{fill:#fff;}.cls-4{font-size:8.63px;font-family:Garamond-Bold, Garamond;font-weight:700;letter-spacing:-0.09em;}.cls-5{letter-spacing:-0.03em;}.cls-6{letter-spacing:-0.02em;}.cls-7{letter-spacing:-0.05em;}.cls-8{letter-spacing:-0.01em;}.cls-9{letter-spacing:-0.04em;}.cls-10{letter-spacing:-0.1em;}</style></defs><g id="Layer_2" data-name="Layer 2"><g id="Layer_2-2" data-name="Layer 2"><rect class="cls-1" width="178.67" height="73.84"/><path class="cls-2" d="M133.46,25.22h-9.34l0,18.49a.79.79,0,0,1-.79.84h-6a.84.84,0,0,1-.85-.84l0-18.49h-9.21V49.48a3.41,3.41,0,0,0,3.65,3.67l18.87,0a3.38,3.38,0,0,0,3.65-3.65Z"/><rect class="cls-2" x="153.11" y="24.99" width="9.15" height="28.16"/><rect class="cls-2" x="89.7" y="8.99" width="9.43" height="4.95"/><path class="cls-2" d="M62.27,14.94v1.37h90.5a.63.63,0,0,1,.63.62.62.62,0,0,1-.63.61H62.27v1.15h90.5a.62.62,0,0,1,.63.61.63.63,0,0,1-.63.62H62.27v1.14h90.5a.63.63,0,0,1,.63.62.62.62,0,0,1-.63.61H62.27v1.37h100V14.94Z"/><path class="cls-2" d="M42.82,41.89H58.68V29.2C58.66,25,54.45,25,54.45,25L37.07,25s-4.25,0-4.23,4.23v19.7c0,4.23,4.23,4.23,4.23,4.23H58.68V44H42.82a.34.34,0,0,1-.35-.35V42.26A.35.35,0,0,1,42.82,41.89Zm-.35-7.61a.51.51,0,0,1,.53-.53h5.79a.52.52,0,0,1,.52.53c0,.52,0,2.13,0,2.13H42.47Z"/><path class="cls-2" d="M30.52,25v8.83H18.81a.74.74,0,0,0-.73.79v8.71a.7.7,0,0,0,.73.73H30.52v9.1H13.14s-4.25,0-4.23-4.23V29.22C8.89,25,13.14,25,13.14,25Z"/><path class="cls-2" d="M61.25,53.15h9.34l0-18.49a.79.79,0,0,1,.79-.84h6a.84.84,0,0,1,.85.84l0,18.49h9.21V28.9a3.41,3.41,0,0,0-3.65-3.68l-18.87,0a3.38,3.38,0,0,0-3.65,3.66Z"/><path class="cls-2" d="M89.7,25h9.43V43.38a1.16,1.16,0,0,0,1.17,1.17h4.62v8.6H94.08s-4.4,0-4.38-4.37Z"/><path class="cls-2" d="M135,53.15h9.42V34.76a1.16,1.16,0,0,1,1.18-1.17h4.61V25H139.33s-4.39,0-4.37,4.37Z"/><text class="cls-3" transform="translate(164.65 52.96) scale(0.8 1)">TM</text><text class="cls-4" transform="translate(8.77 61.64)">W<tspan class="cls-5" x="6.99" y="0">e&apos;</tspan><tspan class="cls-6" x="12.94" y="0">r</tspan><tspan class="cls-5" x="15.73" y="0">e I</tspan><tspan class="cls-7" x="24.57" y="0">nv</tspan><tspan class="cls-5" x="32.48" y="0">enting </tspan><tspan class="cls-8" x="56.18" y="0">W</tspan><tspan class="cls-5" x="63.81" y="0">hat </tspan><tspan class="cls-6" x="76.52" y="0">T</tspan><tspan class="cls-5" x="82.28" y="0">he Futu</tspan><tspan class="cls-6" x="108.96" y="0">r</tspan><tspan class="cls-5" x="111.75" y="0">e </tspan><tspan class="cls-9" x="117.43" y="0">W</tspan><tspan class="cls-5" x="124.82" y="0">ill Brin</tspan><tspan class="cls-10" x="147.82" y="0">g</tspan><tspan class="cls-5" x="151.64" y="0">.</tspan></text></g></g></svg>