<svg xmlns="http://www.w3.org/2000/svg" viewBox="0 0 190.59 41"><defs><style>.cls-1,.cls-3{fill:#231f20;}.cls-2{fill:none;stroke:#231f20;stroke-linecap:round;stroke-linejoin:round;stroke-width:1.05px;}.cls-3{font-size:7px;font-family:Helvetica;}.cls-3,.cls-7{letter-spacing:0.03em;}.cls-4{letter-spacing:-0.03em;}.cls-5{letter-spacing:0.03em;}.cls-6{letter-spacing:-0.09em;}.cls-8{letter-spacing:-0.05em;}.cls-9{letter-spacing:0.02em;}.cls-10{letter-spacing:0.01em;}</style></defs><g id="Layer_2" data-name="Layer 2"><g id="Layer_2-2" data-name="Layer 2"><path class="cls-1" d="M47.47,9.42a11.13,11.13,0,0,0-4-.76,11.26,11.26,0,1,0,4,21.77Z"/><path class="cls-1" d="M43.42,6.81a13,13,0,0,1,4,.64v-7A20,20,0,0,0,23.74,16.82,20,20,0,0,0,0,.41v7a13,13,0,0,1,4.05-.64A13.12,13.12,0,1,1,4.05,33a13.26,13.26,0,0,1-4-.64v7A19.91,19.91,0,0,0,23.74,23a19.9,19.9,0,0,0,23.73,16.4v-7a13.26,13.26,0,0,1-4,.64,13.12,13.12,0,1,1,0-26.23Z"/><path class="cls-1" d="M0,20.54v9.89a11.27,11.27,0,0,0,15.3-9.89Z"/><path class="cls-1" d="M15.25,18.7a11.27,11.27,0,0,0-11.2-10,11.13,11.13,0,0,0-4,.76V18.7Z"/><polygon class="cls-2" points="52.11 2.6 60.9 2.6 62.67 4.49 62.67 9.57 60.9 11.3 52.11 11.3 52.11 2.6"/><polyline class="cls-2" points="63.97 11.3 69.83 2.6 75.43 11.3"/><line class="cls-2" x1="65.8" y1="8.98" x2="73.81" y2="8.98"/><line class="cls-2" x1="73.41" y1="2.6" x2="83.61" y2="2.6"/><line class="cls-2" x1="78.58" y1="2.85" x2="78.58" y2="11.3"/><polyline class="cls-2" points="81.95 11.3 87.68 2.6 93.19 11.16"/><line class="cls-2" x1="83.7" y1="8.93" x2="91.62" y2="8.93"/><polyline class="cls-2" points="108.2 2.6 99.31 2.6 99.31 11.3 108.24 11.3"/><line class="cls-2" x1="99.67" y1="6.62" x2="107.89" y2="6.62"/><polyline class="cls-2" points="109.89 11.3 115.75 2.6 121.35 11.3"/><line class="cls-2" x1="111.73" y1="8.98" x2="119.73" y2="8.98"/><line class="cls-2" x1="133.58" y1="2.6" x2="143.77" y2="2.6"/><line class="cls-2" x1="138.74" y1="2.6" x2="138.74" y2="11.3"/><polyline class="cls-2" points="132.77 4.15 131.35 2.6 124.77 2.6 123.14 3.89 123.14 5.41 124.77 6.98 131.35 6.98 132.77 8.12 132.77 9.81 131.35 11.3 124.77 11.3 123.14 10.22 123.14 8.82"/><line class="cls-2" x1="149.5" y1="2.6" x2="149.5" y2="11.3"/><polyline class="cls-2" points="152.12 11.3 152.12 2.6 153.14 2.6 161.72 11.15 162.83 11.15 162.83 2.6"/><polyline class="cls-2" points="175.12 8.69 175.12 10 174.09 11.3 166.7 11.3 165.15 10.01 165.15 4.11 166.35 2.6 174.09 2.6 175.12 3.61 175.12 4.92"/><path class="cls-1" d="M177.09,11.82a.58.58,0,1,0-.58-.58A.58.58,0,0,0,177.09,11.82Z"/><text class="cls-3" transform="translate(50.88 20.62) scale(1 0.75)">The Embarcadero. Suite 206<tspan x="0" y="7.93">2483 E. Bayshore Rd. Palo</tspan><tspan class="cls-4" x="88.82" y="7.93"> </tspan><tspan class="cls-5" x="90.55" y="7.93">Alto, C</tspan><tspan class="cls-4" x="112.79" y="7.93">A</tspan><tspan class="cls-5" x="117.25" y="7.93" xml:space="preserve"> 94303</tspan><tspan class="cls-6"><tspan x="0" y="15.87">T</tspan><tspan class="cls-7" x="3.68" y="15.87">elephone: (415)494-78</tspan><tspan class="cls-8" x="78.18" y="15.87">1</tspan><tspan class="cls-9" x="81.74" y="15.87">1</tspan><tspan x="0" y="23.8">T</tspan><tspan class="cls-7" x="3.68" y="23.8">elex: 348320 D</tspan><tspan class="cls-8" x="53.22" y="23.8">AT</tspan><tspan class="cls-5" x="61.48" y="23.8">AE</tspan><tspan class="cls-8" x="71.17" y="23.8">A</tspan><tspan class="cls-10" x="75.49" y="23.8">T</tspan><tspan class="cls-5" x="79.82" y="23.8" xml:space="preserve"> PL</tspan><tspan class="cls-4" x="90.85" y="23.8">A</tspan></tspan></text></g></g></svg>