<?xml version="1.0" encoding="utf-8"?>
<svg viewBox="0 0 180.04 95.99" xmlns="http://www.w3.org/2000/svg">
  <defs>
    <style>.cls-1{fill:#fff;stroke-width:0.24px;}.cls-1,.cls-2,.cls-3,.cls-5{stroke:#231f20;}.cls-2,.cls-3{fill:none;stroke-width:1.71px;}.cls-3{stroke-linecap:round;stroke-linejoin:round;}.cls-16,.cls-4,.cls-5,.cls-6{fill:#231f20;}.cls-5{stroke-width:0.06px;}.cls-16,.cls-6{font-size:8.38px;letter-spacing:0.05em;}.cls-6{font-family:ArialMT-Black, ArialMT Black;font-weight:800;}.cls-7{letter-spacing:0.06em;}.cls-8{letter-spacing:0.04em;}.cls-9{letter-spacing:0.03em;}.cls-10{letter-spacing:0.05em;}.cls-11{letter-spacing:0.01em;}.cls-12{letter-spacing:0.03em;}.cls-13{letter-spacing:0.05em;}.cls-14{letter-spacing:0.01em;}.cls-15{letter-spacing:0.05em;}.cls-16{font-family:EssayCaps;}</style>
  </defs>
  <g id="Layer_2" data-name="Layer 2">
    <g id="Layer_2-2" data-name="Layer 2">
      <path class="cls-1" d="M32.07,75.22a5.41,5.41,0,0,1-6.69-4.41,6.67,6.67,0,0,1,4.75-7.48l99.81-26.75V48.72l14.31-3.83V14.32L117,21.62V7.44l-15.07,4V25.66L87.7,29.47a8.36,8.36,0,0,0,2.08-7A6.76,6.76,0,0,0,81.22,17a8.35,8.35,0,0,0-6,9.37,6.83,6.83,0,0,0,4.25,5.29L32.1,44.37A5.41,5.41,0,0,1,25.26,40,6.68,6.68,0,0,1,30,32.51L65.46,23V4.58l-44.82,12A17.4,17.4,0,0,0,8.06,32.87h0v17h0a11.18,11.18,0,0,0,.17,2.23,9.77,9.77,0,0,0,3.64,6.3,11.92,11.92,0,0,0-3.81,8.72V81.6a16,16,0,0,0,.23,2.28A14.06,14.06,0,0,0,26.06,95.26h0l39.4-10.55V66.27l-33.39,9Z"/>
      <path class="cls-2" d="M87.47,22.89a6,6,0,0,1-4.23,6.68,4.84,4.84,0,0,1-6.11-3.91A6,6,0,0,1,81.37,19,4.82,4.82,0,0,1,87.47,22.89Z"/>
      <path class="cls-3" d="M131.87,19.69v7.5c-.08,2-4.34,3.64-4.4.24l-.1-6.53-9.57,2.56V30s0,5.49,6.28,5.83c3.3.51,7.79-3.58,7.79-3.58h0V46.1L142,43.39V17Z"/>
      <polygon class="cls-3" points="87.38 31.61 77.36 34.3 77.36 48.06 87.38 45.38 87.38 31.61"/>
      <polygon class="cls-3" points="72.76 35.53 66.91 37.1 62.08 42.17 57.88 39.52 49.07 41.88 57.36 47.13 49.31 55.58 55.16 54.01 60.07 48.85 64.33 51.55 73.14 49.19 64.79 43.9 72.76 35.53"/>
      <path class="cls-3" d="M103.85,13V31.38a5.7,5.7,0,0,0-5.87-3,8.76,8.76,0,0,0-7.52,7.88A5.75,5.75,0,0,0,97,42.65a8.77,8.77,0,0,0,6.88-5.28V41l10.71-2.87V10.14Z"/>
      <path class="cls-4" d="M32.37,76.29l0,0a6.66,6.66,0,0,1-8.42-5.39,8.23,8.23,0,0,1,5.85-9.21l15.52-4.15V50.49l-5.89,1.57-1.09.3L26.63,55.48c-5.16,1.39-9.6,6.59-9.54,11.86V74a10.34,10.34,0,0,0,.17,2.21,9.73,9.73,0,0,0,12.3,7.88l16.1-4.31.2-.06,18-4.83V67.85L32.37,76.29Z"/>
      <path class="cls-4" d="M30.59,23.58,25.35,25a11.42,11.42,0,0,0-8.26,11h0v8.59h0a10.14,10.14,0,0,0,.16,2c1,5.58,6.07,8.41,11.53,6.95L38,51,41,50.2l4.25-1.14V42L32.09,45.52a6.56,6.56,0,0,1-8.3-5.41,8.2,8.2,0,0,1,5.84-9.2l34.25-9.18V14.66L36.43,22Z"/>
      <path class="cls-4" d="M21.18,17.6a16.62,16.62,0,0,0-12,15.91h0V49.74h0a11.65,11.65,0,0,0,.17,1.94,10.24,10.24,0,0,0,4.07,6.61,12.52,12.52,0,0,0-4.23,9.45h0V79.88a14.59,14.59,0,0,0,.23,2.71,13.43,13.43,0,0,0,17,10.88h0l37.48-10V76.35L46.22,81.08l-.21.06L29,85.69a10.36,10.36,0,0,1-13.1-8.38,11.89,11.89,0,0,1-.15-2.85l0-7.17h0A12.84,12.84,0,0,1,25,55.2l1.17-.34s.64-.22-.09-.15c-5.46.45-9.25-3.12-10.18-8.38a10.84,10.84,0,0,1-.17-1.87V35.31h0a12.19,12.19,0,0,1,8.82-11.55l5.66-1.51,5.84-1.57,27.81-7.45V6.16Z"/>
      <path class="cls-5" d="M86.53,17.68h0l-.07-.05Z"/>
      <path class="cls-5" d="M67.31,21.77a6.82,6.82,0,0,0,4.25,5.28l.06,0L27.87,38.79a5.77,5.77,0,0,1-2.21.16l-.49-.15h0a5.61,5.61,0,0,0,0,.58.11.11,0,0,1,0,0c0,.09,0,.17,0,.25s0,.2.05.3a5.41,5.41,0,0,0,6.84,4.38L79.52,31.66a6.83,6.83,0,0,1-4.25-5.29,8.35,8.35,0,0,1,6-9.37,6.81,6.81,0,0,1,5.2.61l-7.61-4.39a6.11,6.11,0,0,0-.61-.36h0a6.9,6.9,0,0,0-4.93-.47A8.36,8.36,0,0,0,67.31,21.77Z"/>
      <path class="cls-4" d="M12.58,12A17.41,17.41,0,0,0,0,28.32H0v17H0a11.35,11.35,0,0,0,.18,2.24,9.85,9.85,0,0,0,3.21,6l.08,0,3.78,2.19h0l4.62,2.66a9.77,9.77,0,0,1-3.64-6.3,11.18,11.18,0,0,1-.17-2.23h0v-17h0A17.4,17.4,0,0,1,20.64,16.59l44.82-12L57.52,0Z"/>
      <path class="cls-4" d="M8.29,83.88a16,16,0,0,1-.23-2.28V67.14a12,12,0,0,1,3.43-8.37L6.74,56a12.11,12.11,0,0,0-2.43,1.85A12,12,0,0,0,.5,66.59v.32c0,.34,0,14.14,0,14.14a15.88,15.88,0,0,0,.24,2.28c1.28,7.3,9,11.24,16.56,11.59A14.15,14.15,0,0,1,8.29,83.88Z"/>
      <polygon class="cls-4" points="122 38.71 122 44.14 129.94 48.72 129.94 36.58 122 38.71"/>
      <polygon class="cls-4" points="102.3 11.37 116.98 7.44 109.05 2.86 94.36 6.79 102.3 11.37"/>
      <path class="cls-4" d="M93.52,21.2l-3.79,1a2,2,0,0,1,0,.26,8.36,8.36,0,0,1-2.08,7L94,27.79l7.47-2Z"/>
      <polygon class="cls-4" points="136.31 9.73 116.98 14.91 116.98 21.62 144.25 14.31 136.31 9.73"/>
      <polygon class="cls-4" points="101.91 25.33 101.91 11.86 93.98 7.28 93.98 20.75 101.91 25.33"/>
    </g>
  </g>
</svg>