<svg xmlns="http://www.w3.org/2000/svg" viewBox="0 0 203.73 96.14"><defs><style>.cls-1,.cls-11{font-size:8.55px;}.cls-1,.cls-10,.cls-11,.cls-6,.cls-7{fill:#231f20;}.cls-1,.cls-10,.cls-11,.cls-6{font-family:Helvetica-Bold, Helvetica;font-weight:700;}.cls-1{letter-spacing:0.03em;}.cls-2{letter-spacing:-0.03em;}.cls-3{letter-spacing:0.03em;}.cls-4{letter-spacing:0.01em;}.cls-5{letter-spacing:0.02em;}.cls-6{font-size:18.9px;}.cls-8{fill:#fff;}.cls-9{fill:#fda300;}.cls-10{font-size:5.4px;}.cls-11{letter-spacing:-0.03em;}.cls-12{letter-spacing:0.01em;}.cls-13{fill:#0074c6;}</style></defs><g id="Layer_2" data-name="Layer 2"><g id="Layer_2-2" data-name="Layer 2"><text class="cls-1" transform="translate(19.64 92.03)">165 <tspan class="cls-2" x="17.5" y="0">W</tspan><tspan class="cls-3" x="25.31" y="0">. Lake Street, Northlake, I</tspan><tspan class="cls-4" x="133.24" y="0">L</tspan><tspan class="cls-5" x="138.53" y="0" xml:space="preserve"> 60164</tspan></text><text class="cls-6" transform="translate(3.69 61.13)">AMUSEMENT GAMES</text><rect class="cls-7" x="112.79" y="6.68" width="10.69" height="35.55"/><rect class="cls-7" x="126.57" y="13.32" width="10.12" height="28.91"/><rect class="cls-7" x="126.57" y="6.91" width="10.12" height="4.39"/><path class="cls-7" d="M60.37,12A15.36,15.36,0,0,0,44.78,27.12a15.6,15.6,0,0,0,31.18,0A15.36,15.36,0,0,0,60.37,12Zm0,21.8c-3.08,0-5.57-3-5.57-6.68s2.49-6.69,5.57-6.69,5.57,3,5.57,6.69S63.44,33.8,60.37,33.8Z"/><path class="cls-7" d="M183.83,12a15.76,15.76,0,0,0-2.86.26V6.46H170.05V42.23H181v0l2.86,0a15.36,15.36,0,0,0,15.59-15.11A15.36,15.36,0,0,0,183.83,12Zm0,21.8a8.86,8.86,0,0,1-2.86-.42V21a7.19,7.19,0,0,1,2.86-.53c3.07,0,5.56,3,5.56,6.69S186.9,33.8,183.83,33.8Z"/><path class="cls-7" d="M153.63,34.62c-3.49,0-4.5-1.51-5-4.33h19.54a14,14,0,0,0,.26-2.7,14.8,14.8,0,1,0-14.8,14.64h14.29v-7.6Zm0-14.19c2.43,0,4.51,1.79,5.41,4.35H148.22A5.5,5.5,0,0,1,153.63,20.43Z"/><path class="cls-7" d="M87.82,28V20.63H93.1V13.09H87.82V6.91H77.13V32S76,42.23,83.43,42.23h10v-8C91.19,34.24,87.82,35.42,87.82,28Z"/><path class="cls-7" d="M105.75,28V20.63H111V13.09h-5.28V6.91H95.06V32s-1.18,10.22,6.3,10.22h10v-8C109.12,34.24,105.75,35.42,105.75,28Z"/><path class="cls-7" d="M20.15,17.67v-1.8h3.13V9.08h19.2V0H18.63C8.21.84,0,10,0,21A20.43,20.43,0,0,0,20.21,41.83H42.48V17.67Z"/><polygon class="cls-8" points="31.96 10.07 31.54 2.62 24.57 8.5 17.7 0.59 16.44 10.44 6.06 8.02 10.33 19.04 3.67 22.64 11.71 27.29 8.11 37.02 19.16 31.87 21.05 39.18 27.32 31.5 37.84 36.82 32.98 21.83 41.41 9.71 31.96 10.07"/><polygon class="cls-7" points="18.55 3.13 17.53 12.21 7.83 9.59 12.41 19.49 6.2 22.73 13.68 26.72 9.77 35.13 20.12 29.98 21.61 36.54 26.9 29.84 35.53 34.23 31.29 21.55 39.11 10.52 30.95 12.15 30.39 5.09 24.45 10.52 18.55 3.13"/><polygon class="cls-9" points="37.12 11.7 29.81 13.35 29.54 7.35 24.22 12.42 19.38 5.67 18.59 13.69 9.67 11.03 14.02 19.99 8.54 22.69 15.33 26.25 12.03 32.78 20.99 28.09 22.16 33.94 26.47 28.28 34.04 32.52 29.84 21.3 37.12 11.7"/><rect class="cls-7" x="22.34" y="17.44" width="20.14" height="7.54"/><text class="cls-10" transform="translate(195.93 41.48)">TM</text><text class="cls-11" transform="translate(2.15 75.23)">A<tspan class="cls-12" x="5.95" y="0" xml:space="preserve"> Columbia Pictures Industries Company</tspan></text><path class="cls-13" d="M186.31,77.18a4.37,4.37,0,0,1,8.74,0h6.53a10.9,10.9,0,0,0-21.79,0Z"/></g></g></svg>