<svg xmlns="http://www.w3.org/2000/svg" viewBox="0 0 209.6 100.62"><defs><style>.cls-1{font-size:7.65px;}.cls-1,.cls-15,.cls-16,.cls-8{fill:#231f20;}.cls-1,.cls-16,.cls-8{font-family:Arial-Black, Arial Black;font-weight:800;}.cls-2{letter-spacing:0.02em;}.cls-3{letter-spacing:-0.08em;}.cls-4{letter-spacing:0.02em;}.cls-5{letter-spacing:-0.01em;}.cls-6{letter-spacing:-0.03em;}.cls-7{letter-spacing:-0.06em;}.cls-8{font-size:12.6px;}.cls-9{letter-spacing:0.03em;}.cls-10{letter-spacing:0.02em;}.cls-11{letter-spacing:0.02em;}.cls-12{letter-spacing:-0.09em;}.cls-13{fill:none;stroke:#231f20;stroke-width:1.35px;}.cls-14{fill:#ef4123;}.cls-16{font-size:4.5px;}</style></defs><g id="Layer_2" data-name="Layer 2"><g id="Layer_2-2" data-name="Layer 2"><text class="cls-1" transform="translate(26.66 88.07)">8401 Ae<tspan class="cls-2" x="34.01" y="0">r</tspan><tspan x="37.53" y="0">o D</tspan><tspan class="cls-3" x="51.14" y="0">r</tspan><tspan x="53.94" y="0">., San Di</tspan><tspan class="cls-4" x="88.37" y="0">e</tspan><tspan x="93.66" y="0">g</tspan><tspan class="cls-5" x="98.76" y="0">o</tspan><tspan x="103.79" y="0">, CA 92123 </tspan><tspan class="cls-6" x="151.4" y="0">U</tspan><tspan x="157.51" y="0">.S.A.</tspan></text><text class="cls-1" transform="translate(95.33 98.27)"><tspan class="cls-7">T</tspan><tspan x="5.07" y="0">elephone (714) 277-8700</tspan></text><text class="cls-8" transform="translate(0 71.2)"><tspan class="cls-9">T</tspan><tspan x="9.44" y="0">he games people </tspan><tspan class="cls-10" x="130.58" y="0">r</tspan><tspan x="136.37" y="0">eal</tspan><tspan class="cls-11" x="157.38" y="0">l</tspan><tspan x="161.79" y="0">y pla</tspan><tspan class="cls-12" x="194.69" y="0">y</tspan><tspan x="201.2" y="0">. </tspan></text><line class="cls-13" x1="131.32" y1="77.54" x2="169.57" y2="77.54"/><path class="cls-14" d="M67.31,30.28a4.46,4.46,0,1,0-4.46-4.46A4.46,4.46,0,0,0,67.31,30.28Z"/><path class="cls-15" d="M76.8,33.75v0H55.46c-3.73,0-4.32-4.66-4.32-4.66H43.08s.83,12.61,12.38,12.61H72c.85,0,.49.8,0,1.58a21,21,0,1,1,5.37-14.17h8.27a29.18,29.18,0,1,0-.33,4.62Z"/><path class="cls-15" d="M92.62,37V34.06H84.91V57.17h7.71V45.36c.68-1.11,2.89-4.15,6.58-3.82v-8.1C96.91,32.92,93.66,35.93,92.62,37Z"/><path class="cls-15" d="M115.93,48.62a5.88,5.88,0,0,1-8.13,2.2L122.41,42a12.11,12.11,0,1,0,0,6.66Zm-5.14-8.75a5.82,5.82,0,0,1,2.72.67l-8.6,5.07A5.89,5.89,0,0,1,110.79,39.87Z"/><rect class="cls-15" x="158.21" y="1.97" width="8.55" height="55.2"/><rect class="cls-15" x="169.61" y="34.37" width="7.95" height="22.35"/><path class="cls-15" d="M173.51,30.28a4.46,4.46,0,1,0-4.46-4.46A4.46,4.46,0,0,0,173.51,30.28Z"/><path class="cls-15" d="M201.18,39.46c0-7.46-9.7-7.26-11.42-4.31-.43.74-.87.23-.87.23a1.61,1.61,0,0,0-.23-.46v-.85H181v23.1h7.65V41.4c0-2,4.59-2.54,4.59-.37V57h7.93Z"/><path class="cls-15" d="M143.77,35.31a2.38,2.38,0,0,1-1.9,1.44c-2.14-4.47-9.36-4-10.81-1.44-.43.74-.88.22-.88.22a1.32,1.32,0,0,0-.23-.45v-.85H122.3v23.1H130V41.56c0-2,4.59-2.54,4.59-.37V57.1H135v.23h7.65V41.56c0-2,4.6-2.54,4.6-.37V57.1h7.93V39.61C155.19,32.16,145.47,32.34,143.77,35.31Z"/><text class="cls-16" transform="translate(202.1 36.96)">TM</text></g></g></svg>