<svg xmlns="http://www.w3.org/2000/svg" viewBox="0 0 321.67 76.41"><defs><style>.cls-1,.cls-4,.cls-5{fill:#231f20;}.cls-2{fill:none;stroke:#fff;stroke-width:1.43px;}.cls-3{fill:#ef4123;}.cls-4{font-size:12px;font-family:Helvetica;}.cls-5{font-size:13px;font-family:Arial-Black, Arial Black;font-weight:800;}.cls-6{letter-spacing:0.03em;}.cls-7{letter-spacing:-0.08em;}.cls-8{letter-spacing:-0.09em;}</style></defs><g id="Layer_2" data-name="Layer 2"><g id="Layer_2-2" data-name="Layer 2"><path class="cls-1" d="M229.48,24.17v9.94H214.69v1.52s14.79-2,14.79,11.17c0,10.46-10.76,11.21-10.76,11.21h-15V47.94h15V46.42s-15,1.67-15-10.64c0-10.89,11-11.61,11-11.61Z"/><path class="cls-2" d="M229.45,29.56H214.36c-5.85,0-9.07,11.41,2.37,11.41S225,52.46,219.5,52.46H203.66"/><path class="cls-1" d="M256.11,24.18v10h-13.2s-.55,1.64,0,1.64h10.55V46.43H242.65s-.2,1.57.44,1.57h13V58.21H240.86c-1.38,0-9.25-1.38-9.25-9V33.49c0-7.38,7.9-9.31,9.71-9.31Z"/><path class="cls-2" d="M256.14,29.72H241.86c-3.06,0-4.94,1.91-4.94,4.32V48.43a4.41,4.41,0,0,0,4,4.16h15.17"/><line class="cls-2" x1="236.86" y1="40.97" x2="253.47" y2="40.97"/><path class="cls-1" d="M283,24.29V58.12H266.29c-3.33,0-8.63-4.08-8.63-8.88l.17-15.31c0-4.56,4.74-9.64,9.27-9.64Z"/><path class="cls-1" d="M315.52,58.11,305.74,28c-1.78-5.37-11.33-5.26-13,0l-11,30.08h11.94L296.5,50l-.19,8.15Zm-15.08-10h-3L299,43.69Z"/><polyline class="cls-2" points="283.05 35.44 269.08 35.44 269.08 46.66 271.98 46.66"/><path class="cls-2" d="M269.08,41.05h8.33V52.54H267a4.23,4.23,0,0,1-3.92-4.43v-14c0-2.47,2-4.35,5.1-4.35h14.88"/><path class="cls-2" d="M287.84,58.31l9.81-28.23c.81-2.18,2.53-1.37,3,0l7.18,22.49H296.27"/><path class="cls-3" d="M40.3,30.28a4.46,4.46,0,1,0-4.46-4.46A4.45,4.45,0,0,0,40.3,30.28Z"/><path class="cls-1" d="M49.79,33.75v0H28.45c-3.73,0-4.31-4.66-4.31-4.66H16.07s.83,12.61,12.38,12.61H45c.85,0,.5.8-.05,1.58a21,21,0,1,1,5.37-14.17h8.27a29.18,29.18,0,1,0-.33,4.62Z"/><path class="cls-1" d="M65.61,37V34.06H57.9V57.17h7.71V45.36c.68-1.11,2.89-4.15,6.58-3.82v-8.1C69.91,32.92,66.65,35.93,65.61,37Z"/><path class="cls-1" d="M88.92,48.62a5.88,5.88,0,0,1-8.13,2.2L95.4,42a12.09,12.09,0,1,0,0,6.66Zm-5.14-8.75a5.79,5.79,0,0,1,2.72.67l-8.6,5.07A5.89,5.89,0,0,1,83.78,39.87Z"/><rect class="cls-1" x="131.2" y="1.97" width="8.55" height="55.2"/><rect class="cls-1" x="142.6" y="34.37" width="7.95" height="22.35"/><path class="cls-1" d="M146.5,30.28A4.46,4.46,0,1,0,142,25.82,4.45,4.45,0,0,0,146.5,30.28Z"/><path class="cls-1" d="M174.17,39.46c0-7.46-9.7-7.26-11.42-4.31-.43.74-.87.23-.87.23a1.39,1.39,0,0,0-.23-.46v-.85H154v23.1h7.65V41.4c0-2,4.59-2.53,4.59-.37V57h7.93Z"/><path class="cls-1" d="M116.76,35.31a2.38,2.38,0,0,1-1.9,1.44c-2.14-4.47-9.35-4-10.81-1.44-.43.74-.87.22-.87.22a1.51,1.51,0,0,0-.24-.45v-.85H95.29v23.1h7.65V41.56c0-2,4.59-2.54,4.59-.37V57.1H108v.23h7.65V41.56c0-2,4.6-2.54,4.6-.37V57.1h7.93V39.61C128.18,32.16,118.46,32.34,116.76,35.31Z"/><polygon class="cls-1" points="203.91 1.98 178.17 57.17 183.17 57.17 208.91 1.98 203.91 1.98"/><text class="cls-4" transform="translate(173.33 31.43)">®</text><text class="cls-4" transform="translate(312.83 31.43)">®</text><text class="cls-5" transform="translate(0 72.42)"><tspan class="cls-6">T</tspan><tspan x="9.74" y="0">he games people REAL</tspan><tspan class="cls-7" x="173.01" y="0">L</tspan><tspan x="180.67" y="0">Y pla</tspan><tspan class="cls-8" x="216.79" y="0">y</tspan><tspan x="223.51" y="0">. </tspan></text></g></g></svg>