<svg xmlns="http://www.w3.org/2000/svg" viewBox="0 0 116.12 181.07"><defs><style>.cls-1,.cls-2,.cls-3,.cls-4{fill:#ef4123;}.cls-2{font-size:8.55px;}.cls-2,.cls-3,.cls-4{font-family:Helvetica-Bold, Helvetica;font-weight:700;}.cls-3{font-size:19.35px;}.cls-4{font-size:10.35px;}.cls-5{letter-spacing:-0.04em;}</style></defs><g id="Layer_2" data-name="Layer 2"><g id="Layer_2-2" data-name="Layer 2"><path class="cls-1" d="M70.56,74c0,10-12.45,8.78-15.92,8.25V64.15A32.25,32.25,0,0,0,82.23,32.24,30.65,30.65,0,0,0,82,28.77H45V54.18a22.49,22.49,0,1,1,26.4-28.7H81.52A32.24,32.24,0,1,0,45,64.11V88.94H65.33C78.6,88.66,79.5,74.15,79.5,74.15V68.58H70.56ZM54.64,37.19H71.92A22.52,22.52,0,0,1,54.64,54.25Z"/><path class="cls-1" d="M54.64,112.85V98.09c3.47-.52,15.92-1.71,15.92,8.26v5.45H79.5v-5.57s-.9-14.51-14.17-14.79H45v21.41Z"/><text class="cls-2" transform="translate(86.03 111.8)">TM</text><text class="cls-3" transform="translate(0 136.85)">KEE GAMES</text><text class="cls-4" transform="translate(37.64 151.25)">a wholly<tspan x="-23.29" y="12.42">owned subsidiary</tspan><tspan x="-9.3" y="24.84">of</tspan><tspan class="cls-5" x="0.47" y="24.84"> </tspan><tspan x="2.97" y="24.84">Atari, Inc.</tspan></text></g></g></svg>