<svg xmlns="http://www.w3.org/2000/svg" viewBox="0 0 230.87 103.28"><defs><style>.cls-1,.cls-3,.cls-4{fill:none;stroke:#231f20;}.cls-1{stroke-width:1.5px;}.cls-2,.cls-5{fill:#231f20;}.cls-3{stroke-linecap:round;stroke-linejoin:round;stroke-width:1px;}.cls-4{stroke-width:1.93px;}.cls-5{font-size:8.29px;font-family:Helvetica;letter-spacing:0.02em;}.cls-6{letter-spacing:0em;}.cls-7{letter-spacing:0.02em;}.cls-8{letter-spacing:0.02em;}.cls-9{letter-spacing:-0.03em;}</style></defs><g id="Layer_2" data-name="Layer 2"><g id="Layer_2-2" data-name="Layer 2"><path class="cls-1" d="M133.44,31.94c0,11.86-25.87,21.47-57.78,21.47S17.87,43.8,17.87,31.94,43.74,10.48,75.66,10.48,133.44,20.09,133.44,31.94Z"/><path class="cls-2" d="M200.94,32.07s-2.18,5.85-7,3.87c-7.68-3.71-5.23-14.61-5.84-15.92a1.35,1.35,0,0,0-2.42,0c-.6,1.31,1.84,12.21-5.84,15.92-4.8,2-7-3.87-7-3.87-.61-1.47-3.55-1.22-2.59.5L176.68,44c.46.84,2.59.77,3.13,0,0,0,2.4-5.13,7.1-5.18S194,44,194,44c.55.77,2.67.84,3.14,0l6.38-11.45C204.49,30.85,201.55,30.6,200.94,32.07Z"/><rect class="cls-2" x="84.73" y="20.34" width="4.49" height="14.64"/><polygon class="cls-2" points="105.47 24 105.47 20.34 93.05 20.34 93.05 34.98 105.47 34.98 105.47 31.66 96.88 31.66 96.88 29.36 105.47 29.36 105.47 26.2 96.88 26.2 96.88 24 105.47 24"/><polygon class="cls-2" points="76.74 20.34 76.74 27.91 76.02 27.91 68.75 20.34 63.93 20.34 63.93 34.98 68.75 34.98 68.75 27.91 69.65 27.91 76.74 34.98 80.9 34.98 80.9 20.34 76.74 20.34"/><path class="cls-2" d="M45,31.49h-6.5V20.34H34V33.45A1.54,1.54,0,0,0,35.59,35H45Z"/><path class="cls-2" d="M119.55,31.49h-6.49V20.34h-4.49V33.45A1.54,1.54,0,0,0,110.19,35h9.36Z"/><polygon class="cls-2" points="53.61 27.16 55.6 27.16 57.48 31.78 53.88 31.78 52.54 34.98 62.89 34.98 56.84 20.34 52.35 20.34 46.35 34.98 50.52 34.98 53.61 27.16"/><polyline class="cls-3" points="45.85 37.6 45.85 43.05 52.67 43.05 52.67 37.6"/><polyline class="cls-3" points="34.53 43.05 34.53 37.6 42.25 37.6 42.25 41.26 34.53 41.26"/><polyline class="cls-3" points="59.09 43.05 59.09 37.6 55.98 37.6"/><line class="cls-3" x1="59.09" y1="37.6" x2="62.2" y2="37.6"/><polyline class="cls-3" points="102.65 43.05 102.65 37.6 99.54 37.6"/><line class="cls-3" x1="102.65" y1="37.6" x2="105.75" y2="37.6"/><rect class="cls-3" x="65.5" y="37.6" width="6.72" height="5.45"/><polyline class="cls-3" points="75.94 43.05 75.94 37.6 80.56 37.6 80.56 43.05"/><polyline class="cls-3" points="85.05 43.05 85.05 37.6 80.56 37.6"/><path class="cls-3" d="M41.71,41.26c.75,0,.93,1.79.93,1.79"/><line class="cls-3" x1="109.01" y1="37.6" x2="109.01" y2="43.05"/><polyline class="cls-3" points="118.87 37.6 112.88 37.6 112.88 43.05 119 43.05"/><polyline class="cls-3" points="88.35 43.05 88.35 37.6 96.07 37.6 96.07 40.98 88.35 40.98"/><path class="cls-3" d="M95.53,41c.75,0,.93,2.08.93,2.08"/><rect class="cls-4" x="1.05" y="0.96" width="228.77" height="61.96"/><text class="cls-5" transform="translate(0 78.82)">151 CH, ROCKLAND RD., MONTRÉAL, QUÉBEC H3<tspan class="cls-6" x="205.32" y="0">P</tspan><tspan class="cls-7" x="210.86" y="0" xml:space="preserve"> 2W3</tspan><tspan class="cls-8"><tspan x="97.89" y="10.24">CANAD</tspan><tspan class="cls-9" x="127.74" y="10.24">A</tspan></tspan><tspan x="57.62" y="20.48">TÉLÉPHONE: (514) 731-8571</tspan></text></g></g></svg>