<svg xmlns="http://www.w3.org/2000/svg" viewBox="0 0 501.89 76.83"><defs><style>.cls-1{fill-rule:evenodd;}</style></defs><g id="Layer_2" data-name="Layer 2"><polygon points="418.29 0 444.67 0 455.51 25.86 475.68 0 501.89 0 463.95 44.65 458.11 76.83 434.29 76.83 440.13 44.65 418.29 0 418.29 0"/><path class="cls-1" d="M384.82,64.17h-26.9l-6.16,12.66H327.52L370.39,0h26l14.83,76.83H386.37l-1.55-12.66Zm-2-16.63-3.36-27.62L366,47.54Z"/><polygon points="234.06 0 256.61 0 256.91 42.87 276.58 0 298.94 0 303.1 42.95 319.06 0 341.48 0 310.58 76.83 287.29 76.83 282.61 28.46 260.41 76.83 237.17 76.83 234.06 0 234.06 0"/><path class="cls-1" d="M157.57,0h35.28q10.43,0,16.34,2.83A21.07,21.07,0,0,1,218.33,11a27.92,27.92,0,0,1,3.84,12.32,55.56,55.56,0,0,1-.82,14.88q-2.22,12.33-6.27,19.11a40.85,40.85,0,0,1-9.85,11.37,31.49,31.49,0,0,1-11.8,6.1,58.9,58.9,0,0,1-14.53,2.1H143.61L157.57,0Zm20.56,17.38-7.62,42h5.83q7.47,0,10.91-1.65a14.43,14.43,0,0,0,6-5.77c1.69-2.73,3.1-7.18,4.21-13.32q2.22-12.21-.95-16.71t-12.44-4.51Z"/><polygon points="116.53 0 140.36 0 126.4 76.83 102.58 76.83 116.53 0 116.53 0"/><polygon points="13.96 0 45.26 0 48.71 46.76 69.16 0 100.34 0 86.38 76.83 66.96 76.83 77.6 18.25 51.98 76.83 34.38 76.83 30.06 18.25 19.42 76.83 0 76.83 13.96 0 13.96 0"/></g></svg>