<svg xmlns="http://www.w3.org/2000/svg" viewBox="0 0 519.55 175.46"><defs><style>.cls-1{fill:red;}.cls-2,.cls-3{fill:#fff;}.cls-3{fill-rule:evenodd;}</style></defs><g id="Layer_2" data-name="Layer 2"><rect class="cls-1" width="519.55" height="175.46"/><path class="cls-2" d="M412.42,152.28H357.7a36.85,36.85,0,0,1-5.69-.36,32.54,32.54,0,0,1-5-1,11.13,11.13,0,0,1-4.75-2.45,3.44,3.44,0,0,1-1.3-2.52v-9.5a5,5,0,0,1,1.73-2.52,11.33,11.33,0,0,1,3.74-1.8,35.11,35.11,0,0,1,5.26-1,60.79,60.79,0,0,1,6.41-.36h54.29v2.88H358.13a51.16,51.16,0,0,0-6.12.29,37.45,37.45,0,0,0-5,1c-2.16.65-2.59,1.44-3,2.52l-.07,2.23h68.47l.08,2.95H343.94v3.1c0,.79.58,1.58,3.46,2.37a39.58,39.58,0,0,0,4.82.87,33.79,33.79,0,0,0,5.4.36h54.8Z"/><path class="cls-2" d="M299.38,152.28h0Z"/><polygon class="cls-2" points="332.35 133.78 297.86 133.78 297.86 152.28 294.84 152.28 294.84 133.78 260.42 133.78 260.42 130.75 332.35 130.75 332.35 133.78"/><path class="cls-2" d="M160.34,143.35H140.4v8.93h-3v-8.93H111.6c-3.89,0-8.71-.5-8.71-6.26v-6.34h3.17v6.05c0,3.82,3.67,3.46,6,3.46h54.22c2.45,0,6.12.36,6.12-3.46v-6.05h3v6.34c0,5.76-4.82,6.26-8.71,6.26Z"/><path class="cls-2" d="M95.11,133.85H37.51a19.46,19.46,0,0,0-7.34,1.29c-1.44.58-2.31,1.23-2.31,1.8h0c0,.58.87,1.23,2.31,1.8h0A21.05,21.05,0,0,0,37.51,140H82.44a25,25,0,0,1,6,.65,20.18,20.18,0,0,1,2.52.79h0A18,18,0,0,1,93,142.49h0a4.56,4.56,0,0,1,2.16,3.6v.07c0,1.94-1.65,3.6-4.24,4.68a24.47,24.47,0,0,1-8.5,1.44H25.63v-3.1H82.44A21.07,21.07,0,0,0,89.78,148c1.37-.65,2.31-1.3,2.31-1.8v-.07c0-.29-.36-.65-.87-1h0c-.43-.29-.93-.5-1.44-.79h0c-.64-.22-1.29-.43-2.08-.65a23.12,23.12,0,0,0-5.26-.58H37.51A22.65,22.65,0,0,1,29,141.62h0c-2.6-1.08-4.25-2.73-4.25-4.68h0c0-2,1.65-3.67,4.25-4.75a24.37,24.37,0,0,1,8.49-1.44h57.6Z"/><path class="cls-2" d="M253.15,133.85H195.62a19.46,19.46,0,0,0-7.34,1.29c-1.44.58-2.3,1.23-2.3,1.8h0c0,.58.86,1.23,2.3,1.8h0a21.05,21.05,0,0,0,7.34,1.23h44.93a24,24,0,0,1,5.91.65,20.18,20.18,0,0,1,2.52.79h0a18,18,0,0,1,2.08,1.08H251a4.47,4.47,0,0,1,2.23,3.6v.07c0,1.94-1.65,3.6-4.24,4.68a24.06,24.06,0,0,1-8.43,1.44H183.74v-3.1h56.81a20,20,0,0,0,7.2-1.22c1.44-.65,2.38-1.3,2.38-1.8v-.07c0-.29-.36-.65-.87-1h0c-.43-.29-.93-.5-1.44-.79h0c-.64-.22-1.29-.43-2-.65a23,23,0,0,0-5.26-.58H195.62a22.65,22.65,0,0,1-8.49-1.44h0c-2.59-1.08-4.25-2.73-4.25-4.68h0c0-2,1.58-3.67,4.25-4.75a24.37,24.37,0,0,1,8.49-1.44h57.53Z"/><path class="cls-2" d="M493.2,130.75a1.53,1.53,0,0,1,1.58,1.51v20h-2.95V134.93l-32.69,16.49-.43.14c-1.8.72-2.3.58-3.6,0l-.43-.22-32.4-16.48v17.42h-3.1V132.19a1.47,1.47,0,0,1,1.52-1.44,1.61,1.61,0,0,1,1,.29l33.7,17.35c1.3.58,1.51.87,3.1.07l29.8-15.19,4.25-2.3A1.35,1.35,0,0,1,493.2,130.75Z"/><path class="cls-2" d="M344.66,33.41v25.7h-2q-3.57-10.57-10.8-16c-4.75-3.67-7.63-5.55-13.32-5.55A20.45,20.45,0,0,0,305,42.19c-3.67,3.1-6.19,7.35-7.7,12.82a63,63,0,0,0-2.23,16.85,61.53,61.53,0,0,0,2.44,18.36,18.11,18.11,0,0,0,8,10.58,18.62,18.62,0,0,0,11.66,3.67,27.41,27.41,0,0,0,5.4-.5,40.19,40.19,0,0,0,5.26-1.66V83.74a17.65,17.65,0,0,0-.58-5.62,5.75,5.75,0,0,0-2.45-2.23,8.78,8.78,0,0,0-4.53-1.08h-1.88v-2h35.43v2A15.63,15.63,0,0,0,348.19,76a5.13,5.13,0,0,0-2.45,2.74,19.66,19.66,0,0,0-.5,5l-.14,18a71,71,0,0,1-13.9,4.82,79.89,79.89,0,0,1-15.7,1.87c-6.91,0-11.3-.5-15.84-2.37s-8.56-3.6-12.09-6.63a37.14,37.14,0,0,1-8.21-10.37,36.88,36.88,0,0,1-3.74-16.63,37.33,37.33,0,0,1,11.59-27.72c7.63-7.56,17.35-11.3,29-11.3,5.33,0,10.08,1.37,15,3.24,3.53,1.37,5.62,2,6.27,2a4.12,4.12,0,0,0,2.73-1.08,9.37,9.37,0,0,0,2.38-4.17Z"/><path class="cls-2" d="M214.06,38.09h-.15v-4c11.88-.29,21.67,3.09,29.16,10A34.94,34.94,0,0,1,254.52,70.7,37,37,0,0,1,246,94.82c-7.56,9.15-18.21,13.76-32,13.76V103h0a17,17,0,0,0,9.65-2.73c3.24-2.16,5.33-5.69,7.13-10.52a52.29,52.29,0,0,0,3-18.57c0-9.22-.93-16.06-2.81-20.59s-4.17-7.78-7-9.72A17.68,17.68,0,0,0,214.06,38.09Zm-.15,0c-6.84.07-11.95,3.31-15.48,9.79-3,5.26-4.39,13-4.39,22.9,0,11.88,2.09,20.8,6.55,26.42,3.17,4,7.71,5.83,13.32,5.83v5.55h-.07c-13.82,0-24.55-4.4-32.11-13.18a36.42,36.42,0,0,1-9-24.62,34.51,34.51,0,0,1,11.66-26.64c7.78-7.13,17.35-10.52,28.73-10.08h.79Z"/><path class="cls-2" d="M134.42,39.31V68H136c5,0,6.91-1.44,9.14-4.39s3.67-7.13,4.25-12.82h2.23V89H149.4a27.27,27.27,0,0,0-2.88-10.22c-1.51-2.67-3.24-4.47-5.18-5.33s-3.17-1.37-6.92-1.37V93.46c0,4,.22,6.48.58,7.34a4.26,4.26,0,0,0,2,2.23,10.13,10.13,0,0,0,4.89.87h4.68c7.27,0,9.36-1.59,13.75-4.76A22.59,22.59,0,0,0,169.7,86h2.16l-3.38,22h-64v-2h2.67a11.93,11.93,0,0,0,5.47-1.08,4.81,4.81,0,0,0,2.3-2.59c.43-.86.65-3.1.65-6.77V47.52a33.05,33.05,0,0,0-.29-6.05,4.88,4.88,0,0,0-2.16-2.88,10.3,10.3,0,0,0-6-1.51h-2.67v-2h65.67V56.59H168c-1.16-5.25-2.67-9-4.76-11.3a17.27,17.27,0,0,0-8.56-5c-2.16-.65-6.2-.94-12.17-.94Z"/><path class="cls-2" d="M49.32,35.06,89.71,80.28V49c0-4.39-.65-7.34-2.09-8.86-1.94-2.08-4.24-3.09-8.85-3v-2h24.41v2A10.66,10.66,0,0,0,98,38.59a6.29,6.29,0,0,0-2.81,3.1c-.64,1.37-1,3.81-1,7.27v60.62h-2L36.72,49v46.3c0,4.17,1.08,7,3.24,8.49a13,13,0,0,0,7.42,2.16h1.94v2H20.23v-2c4.54,0,7.63-.86,9.43-2.45s2.67-4.32,2.67-8.2V43.85l-1.8-2A16.24,16.24,0,0,0,26,38.09c-1.37-.58-.14-.94-2.59-1v-2Z"/><path class="cls-2" d="M458.78,38.09h-.14v-4c11.88-.29,21.67,3.09,29.16,10A34.76,34.76,0,0,1,499.32,70.7a37,37,0,0,1-8.57,24.12c-7.63,9.15-18.29,13.76-32.11,13.76V103h0a17,17,0,0,0,9.65-2.73c3.24-2.16,5.33-5.69,7.13-10.52a52.29,52.29,0,0,0,3-18.57c0-9.22-.94-16.06-2.81-20.59s-4.17-7.78-7-9.72A17.69,17.69,0,0,0,458.78,38.09Zm-.14,0c-6.84.07-11.95,3.31-15.48,9.79-3,5.26-4.39,13-4.39,22.9,0,11.88,2.09,20.8,6.55,26.42,3.17,4,7.7,5.83,13.32,5.83v5.55h-.07q-20.74,0-32.11-13.18a36.42,36.42,0,0,1-9-24.62,34.48,34.48,0,0,1,11.66-26.64c7.78-7.13,17.35-10.52,28.73-10.08h.79Z"/><path class="cls-2" d="M379.15,39.31V68h1.59c5,0,6.91-1.44,9.14-4.39s3.67-7.13,4.25-12.82h2.23V89h-2.23a27.27,27.27,0,0,0-2.88-10.22c-1.51-2.67-3.24-4.47-5.19-5.33s-3.16-1.37-6.91-1.37V93.46c0,4,.22,6.48.58,7.34a4.28,4.28,0,0,0,2,2.23,10.2,10.2,0,0,0,4.9.87h4.68c7.27,0,9.36-1.59,13.75-4.76A22.63,22.63,0,0,0,414.43,86h2.16l-3.38,22h-64v-2h2.66a12,12,0,0,0,5.48-1.08,4.85,4.85,0,0,0,2.3-2.59c.43-.86.65-3.1.65-6.77V47.52a33.05,33.05,0,0,0-.29-6.05,4.88,4.88,0,0,0-2.16-2.88,10.34,10.34,0,0,0-6-1.51H349.2v-2h65.66V56.59H412.7c-1.15-5.25-2.66-9-4.75-11.3a17.26,17.26,0,0,0-8.57-5c-2.16-.65-6.19-.94-12.16-.94Z"/><path class="cls-3" d="M264.6,63.94H265a7.3,7.3,0,0,1,7.42,7.12h0A7.24,7.24,0,0,1,265,78.12h-.43a7.25,7.25,0,0,1-7.42-7.06h0A7.31,7.31,0,0,1,264.6,63.94Z"/></g></svg>