<svg xmlns="http://www.w3.org/2000/svg" viewBox="0 0 493.63 105.28"><defs><style>.cls-1{fill:#fd0;stroke:#231f20;stroke-width:1.75px;}.cls-2{fill:#231f20;}</style></defs><g id="Layer_2" data-name="Layer 2"><g id="Layer_2-2" data-name="Layer 2"><path class="cls-1" d="M104.41,52.64A51.77,51.77,0,1,1,52.64.88,51.77,51.77,0,0,1,104.41,52.64Z"/><path class="cls-2" d="M42.07,37.44a5,5,0,1,1-5-5A5,5,0,0,1,42.07,37.44Z"/><path class="cls-2" d="M37.06,27A10.45,10.45,0,1,0,47.5,37.44,10.44,10.44,0,0,0,37.06,27Zm0,16.63a6.19,6.19,0,1,1,6.18-6.18A6.18,6.18,0,0,1,37.06,43.62Z"/><path class="cls-2" d="M73.24,37.44a5,5,0,1,1-5-5A5,5,0,0,1,73.24,37.44Z"/><path class="cls-2" d="M68.22,27A10.45,10.45,0,1,0,78.67,37.44,10.45,10.45,0,0,0,68.22,27Zm0,16.63a6.19,6.19,0,1,1,6.19-6.18A6.18,6.18,0,0,1,68.22,43.62Z"/><path class="cls-2" d="M68.24,21.58H37.05c-14.61,0-16.3-10.46-16.3,0V65.85h0C20.75,83.46,43.08,99,52.64,99S84.53,83.46,84.53,65.85h0V21.58C84.53,11.12,82.84,21.58,68.24,21.58ZM30.57,74.08a.47.47,0,0,1-.35.15.49.49,0,0,1-.36-.15L24.5,68.67a.49.49,0,0,1-.11-.55.5.5,0,0,1,.46-.31H35.58a.5.5,0,0,1,.47.31.53.53,0,0,1-.11.55Zm6.59,7.18a.4.4,0,0,1-.31-.13L32,76.28a.48.48,0,0,1-.09-.5.45.45,0,0,1,.41-.27H42a.45.45,0,0,1,.41.27.48.48,0,0,1-.09.5l-4.82,4.85A.42.42,0,0,1,37.16,81.26Zm19.48-5.75a.38.38,0,0,1,.35.23.41.41,0,0,1-.08.41l-4,4a.4.4,0,0,1-.27.11.39.39,0,0,1-.27-.11l-4-4a.41.41,0,0,1-.08-.41.38.38,0,0,1,.35-.23Zm-1.75-7.42a.44.44,0,0,1,.41-.28h9.62a.45.45,0,0,1,.32.77l-4.81,4.85a.43.43,0,0,1-.32.14.45.45,0,0,1-.32-.14L55,68.58A.44.44,0,0,1,54.89,68.09Zm-4.59.49-4.82,4.85a.42.42,0,0,1-.32.14.43.43,0,0,1-.31-.14L40,68.58a.46.46,0,0,1-.09-.49.44.44,0,0,1,.41-.28H50a.44.44,0,0,1,.41.28A.46.46,0,0,1,50.3,68.58ZM43.89,88.05a.43.43,0,0,1-.32-.14l-4.81-4.85a.45.45,0,0,1,.32-.77H48.7a.46.46,0,0,1,.32.77l-4.81,4.85A.45.45,0,0,1,43.89,88.05Zm14.47,3.24L53,96.71a.51.51,0,0,1-.72,0l-5.36-5.42a.5.5,0,0,1,.35-.85H58a.5.5,0,0,1,.35.85Zm8.16-8.23-4.81,4.85a.44.44,0,0,1-.64,0l-4.81-4.85a.45.45,0,0,1-.1-.49.46.46,0,0,1,.42-.28H66.2a.46.46,0,0,1,.42.28A.45.45,0,0,1,66.52,83.06Zm6.72-6.78-4.81,4.85a.42.42,0,0,1-.32.13.44.44,0,0,1-.32-.13L63,76.28a.48.48,0,0,1-.09-.5.45.45,0,0,1,.41-.27h9.63a.45.45,0,0,1,.41.27A.46.46,0,0,1,73.24,76.28Zm7.54-7.61-5.36,5.41a.51.51,0,0,1-.72,0l-5.36-5.41a.51.51,0,0,1-.11-.55.5.5,0,0,1,.46-.31H80.43a.5.5,0,0,1,.46.31A.49.49,0,0,1,80.78,68.67ZM52.64,65.6C36.13,65.6,22.69,53,22.69,37.44A14.37,14.37,0,1,1,46.11,48.59a.27.27,0,0,0-.09.21.24.24,0,0,0,.11.2,14.25,14.25,0,0,1,6,9.12c.11.56.22.88.51.88s.4-.32.51-.88a14.29,14.29,0,0,1,6-9.13.21.21,0,0,0,.11-.19.27.27,0,0,0-.09-.21A14.37,14.37,0,1,1,82.59,37.44C82.59,53,69.16,65.6,52.64,65.6Z"/><path class="cls-2" d="M127.58,58.57V4.66h19.18s16.37,35.67,16.94,37.5V4.66h14.24V58.57H156.67s-16.42-36.72-17-38.45V58.57Z"/><path class="cls-2" d="M180.75,14.81V4.66H194V14.81Zm0,43.76V21.72H194V58.57Z"/><path class="cls-2" d="M238.27,58.26V4.66h14.55V25.78a14.11,14.11,0,0,1,11.26-5.26,15.21,15.21,0,0,1,6.2,1.18,11.5,11.5,0,0,1,4.51,3.58,13.2,13.2,0,0,1,2.38,5.32,51.3,51.3,0,0,1,.7,10v17.7H263.32V38.69c0-3-.38-5.09-1.13-6.22a4.28,4.28,0,0,0-3.86-1.7,4.71,4.71,0,0,0-4.17,2c-.9,1.32-1.34,3.33-1.34,6v19.5Z"/><path class="cls-2" d="M281.09,15.78V4.66h13.26V15.78Zm0,42.79V21.72h13.26V58.57Z"/><path class="cls-2" d="M405.51,48.23a3,3,0,0,0,1.12,2.68,7.46,7.46,0,0,0,4,.77h1.28l.89-.06v9c-1.89.1-3.61.19-5.15.24s-3,.08-4.32.08q-7.26,0-10.13-2.4c-1.92-1.6-2.89-4.4-2.89-8.42V31.28H385v-8.7h5.34v-4l11.08-6h4.11v10h7.14v8.7h-7.14Z"/><path class="cls-2" d="M413.68,49H427.8a4.65,4.65,0,0,0,1.2,3.5,5,5,0,0,0,3.6,1.15,6.48,6.48,0,0,0,3.53-.79,2.56,2.56,0,0,0,1.22-2.29c0-1.66-1.8-2.9-5.41-3.7a5.78,5.78,0,0,1-.71-.17q-10.31-2.25-13.46-4.84c-2.1-1.72-3.15-4.26-3.15-7.6a10.45,10.45,0,0,1,4.6-9.21q4.61-3.16,13.46-3.17,8.16,0,12.67,3a11.51,11.51,0,0,1,5.19,8.79H437.49a3.77,3.77,0,0,0-1.44-2.71,5,5,0,0,0-3.21-1,5.33,5.33,0,0,0-2.94.68,2.22,2.22,0,0,0-1,2c0,1.5,1.65,2.62,5,3.33l1.95.42q10,2.35,13,5t3,7.74q0,6.45-4.9,9.73T432.35,62q-8.88,0-13.54-3.25C415.71,56.56,414,53.3,413.68,49Z"/><path class="cls-2" d="M222.65,44.27c-.69,5.24-3.05,9.1-5.85,9.1-3.35,0-6.07-5.49-6.07-12.26s2.72-12.27,6.07-12.27c2.38,0,4.44,2.79,5.43,6.84h14.09a14.54,14.54,0,0,0-5.55-11.33q-5.27-4.22-13.86-4.22-9.53,0-15,5.35T196.45,40.1q0,9.28,5.55,14.67t15,5.4q8.61,0,13.78-4.26a15.66,15.66,0,0,0,5.64-11.64Z"/><path class="cls-2" d="M335.88,27a14.16,14.16,0,0,0-11.75-5.69,12.81,12.81,0,0,0-5.75,1.32,15.49,15.49,0,0,0-4.89,3.91V5.63H297.88V59.55h14.27V54.77a16.15,16.15,0,0,0,5.42,4.69A14.54,14.54,0,0,0,324.33,61a13.5,13.5,0,0,0,11.59-5.7,24.85,24.85,0,0,0,4.4-13.15Q340.32,32.7,335.88,27ZM318.62,53.23c-4,0-7.3-5.18-7.3-11.56s3.26-11.56,7.3-11.56,7.3,5.17,7.3,11.56S322.65,53.23,318.62,53.23Z"/><path class="cls-2" d="M493.63,23.4V60.52H480V54.81a17.76,17.76,0,0,1-5.88,5.13,15.55,15.55,0,0,1-7.3,1.67,14.92,14.92,0,0,1-6.08-1.18,11.91,11.91,0,0,1-4.57-3.52,12.77,12.77,0,0,1-2.33-5.09,50.7,50.7,0,0,1-.69-10.07V23.4h14.91V44.59q0,4.47,1.14,6.19a4.36,4.36,0,0,0,3.91,1.71,4.77,4.77,0,0,0,4.2-2c.92-1.33,1.38-3.32,1.38-6V23.4Z"/><path class="cls-2" d="M382.63,23.4V60.52H369V54.81a17.74,17.74,0,0,1-5.87,5.13,15.59,15.59,0,0,1-7.31,1.67,15,15,0,0,1-6.08-1.18,12.06,12.06,0,0,1-4.57-3.52,12.9,12.9,0,0,1-2.32-5.09,50.7,50.7,0,0,1-.69-10.07V23.4h14.91V44.59q0,4.47,1.14,6.19a4.34,4.34,0,0,0,3.91,1.71,4.77,4.77,0,0,0,4.19-2c.93-1.33,1.39-3.32,1.39-6V23.4Z"/><path class="cls-2" d="M129.65,93.48V71.76h6.63l6.07,10.1a8.07,8.07,0,0,1,.59,1.21c.21.52.44,1.15.67,1.89-.06-.39-.1-.81-.13-1.27s0-1,0-1.68V71.76h6.66V93.48h-6.66l-6.07-10a9.8,9.8,0,0,1-.61-1.25q-.33-.81-.66-1.86c.06.39.11.79.14,1.2s.05,1,.05,1.77V93.48Z"/><path class="cls-2" d="M153.28,75.82V71.23h6.44v4.59Zm0,17.66v-16h6.44v16Z"/><path class="cls-2" d="M173.25,87.23h6.38a6.59,6.59,0,0,1-2.53,5A9.74,9.74,0,0,1,170.93,94a9.47,9.47,0,0,1-6.73-2.31,9.22,9.22,0,0,1,0-12.55,9.39,9.39,0,0,1,6.7-2.29,10,10,0,0,1,6.22,1.8,6.12,6.12,0,0,1,2.48,4.85h-6.38a2.5,2.5,0,0,0-.68-1.67,2.3,2.3,0,0,0-1.67-.55,2.23,2.23,0,0,0-2,1,5.76,5.76,0,0,0-.65,3.12,6.21,6.21,0,0,0,.62,3.16,2.19,2.19,0,0,0,2,1,2.4,2.4,0,0,0,1.73-.6A2.73,2.73,0,0,0,173.25,87.23Z"/><path class="cls-2" d="M181.49,93.48V71.76h6.37v7.41a6.38,6.38,0,0,1,2.2-1.6,6.87,6.87,0,0,1,2.72-.53,7,7,0,0,1,2.69.48,5,5,0,0,1,2,1.45,5.26,5.26,0,0,1,1,2.15,19.41,19.41,0,0,1,.3,4v8.33h-6.38v-8.3a4.7,4.7,0,0,0-.48-2.52,1.92,1.92,0,0,0-1.67-.68,2,2,0,0,0-1.79.8,4.1,4.1,0,0,0-.59,2.43v8.27Z"/><path class="cls-2" d="M201.51,75.82V71.23h6.43v4.59Zm0,17.66v-16h6.43v16Z"/><path class="cls-2" d="M217.59,82.86a2.25,2.25,0,0,1,2-.91,2.22,2.22,0,0,1,2,.9,4.83,4.83,0,0,1,.64,2.79,4.63,4.63,0,0,1-.69,2.72,2.2,2.2,0,0,1-1.91,1,2.25,2.25,0,0,1-1.93-1,4.62,4.62,0,0,1-.69-2.71A4.9,4.9,0,0,1,217.59,82.86Zm-1.15,10.62v-2a6.65,6.65,0,0,0,2.33,1.91,6.73,6.73,0,0,0,2.92.62,6.13,6.13,0,0,0,5-2.33,9.52,9.52,0,0,0,1.89-6.18,9.41,9.41,0,0,0-1.91-6.19A6.22,6.22,0,0,0,221.6,77a5.81,5.81,0,0,0-2.49.54,6.46,6.46,0,0,0-2.1,1.6V71.76h-6.22V93.48Z"/><path class="cls-2" d="M247.59,77.45v16h-5.83V91.13a7.27,7.27,0,0,1-2.49,2.1,6.88,6.88,0,0,1-3.12.69,6.66,6.66,0,0,1-2.6-.49A4.87,4.87,0,0,1,231.61,92a5,5,0,0,1-1-2.09,20.52,20.52,0,0,1-.29-4.13V77.45h6.37v8.29a4.79,4.79,0,0,0,.49,2.54,1.88,1.88,0,0,0,1.67.7,2.06,2.06,0,0,0,1.78-.81,4.15,4.15,0,0,0,.6-2.46V77.45Z"/><path class="cls-2" d="M257.67,87.53a1.3,1.3,0,0,0,.48,1.15,3.07,3.07,0,0,0,1.68.33h.54l.37,0v4.61c-.79,0-1.51.08-2.15.1s-1.25,0-1.81,0c-2,0-3.45-.34-4.25-1a4.48,4.48,0,0,1-1.2-3.56V81.1h-2.25V77.45h2.25V72.51h6.34v4.94h3V81.1h-3Z"/><path class="cls-2" d="M261.72,88.42h6.18a2,2,0,0,0,.53,1.52,2.18,2.18,0,0,0,1.58.51,3,3,0,0,0,1.54-.34,1.11,1.11,0,0,0,.54-1c0-.72-.79-1.26-2.37-1.6l-.33-.07c-3-.64-4.95-1.33-5.87-2.06a3.94,3.94,0,0,1-1.37-3.24,4.42,4.42,0,0,1,2-3.92A10.52,10.52,0,0,1,270,76.89a10.27,10.27,0,0,1,5.55,1.26,4.9,4.9,0,0,1,2.26,3.77h-5.75a1.56,1.56,0,0,0-.62-1.14,2.23,2.23,0,0,0-1.38-.43,2.35,2.35,0,0,0-1.28.29.94.94,0,0,0-.44.83c0,.63.73,1.1,2.17,1.4l.87.18c2.9.67,4.78,1.38,5.66,2.13a4.12,4.12,0,0,1,1.3,3.31,4.63,4.63,0,0,1-2.14,4.15,11.71,11.71,0,0,1-6.34,1.4,10.5,10.5,0,0,1-5.93-1.4A5.26,5.26,0,0,1,261.72,88.42Z"/><path class="cls-2" d="M297.37,77.45v16h-5.83V91.13a7.3,7.3,0,0,1-2.5,2.1,6.84,6.84,0,0,1-3.11.69,6.75,6.75,0,0,1-2.61-.49A5,5,0,0,1,281.38,92a5.15,5.15,0,0,1-1-2.09,19.61,19.61,0,0,1-.3-4.13V77.45h6.38v8.29a4.81,4.81,0,0,0,.48,2.54,1.89,1.89,0,0,0,1.68.7,2.07,2.07,0,0,0,1.78-.81,4.23,4.23,0,0,0,.59-2.46V77.45Z"/><path class="cls-2" d="M309.53,71.76h7V85.14a3.65,3.65,0,0,0,.78,2.64,3.51,3.51,0,0,0,2.59.79,3.44,3.44,0,0,0,2.53-.77,3.77,3.77,0,0,0,.76-2.66V71.76h7V85.68a7.59,7.59,0,0,1-2.63,6.24c-1.76,1.44-4.3,2.15-7.63,2.15s-5.92-.72-7.68-2.16a7.56,7.56,0,0,1-2.66-6.23Z"/><path class="cls-2" d="M332.05,93.48V87h6.41v6.5Z"/><path class="cls-2" d="M340.51,86.7h6.78a2.77,2.77,0,0,0,1,1.7,3.85,3.85,0,0,0,2.19.52,3.75,3.75,0,0,0,1.92-.42,1.3,1.3,0,0,0,.69-1.16c0-.79-1-1.43-2.93-1.92l-.9-.22c-1.6-.42-2.87-.79-3.82-1.13a10.37,10.37,0,0,1-2.07-.95A6,6,0,0,1,341.51,81a6.3,6.3,0,0,1-.63-2.86A6,6,0,0,1,343.31,73,13.13,13.13,0,0,1,356.58,73,6.73,6.73,0,0,1,359.29,78h-6.62a2,2,0,0,0-.85-1.43,3.38,3.38,0,0,0-1.95-.48,3,3,0,0,0-1.66.37,1.27,1.27,0,0,0-.54,1.12q0,1.08,2.85,1.8l.38.11,1.25.31a18.71,18.71,0,0,1,5,1.74,6.14,6.14,0,0,1,2.11,2.18,6,6,0,0,1,.66,2.89,6.53,6.53,0,0,1-2.51,5.52q-2.5,1.94-7.19,1.93a11,11,0,0,1-6.84-1.93A7.34,7.34,0,0,1,340.51,86.7Z"/><path class="cls-2" d="M362,93.48V87h6.41v6.5Z"/><path class="cls-2" d="M380.49,78.53,382.66,86h-4.38Zm-4.31,15L377,90.6h6.9l.81,2.88h6.91L384,71.76H377l-7.64,21.72Z"/><path class="cls-2" d="M393.15,93.48V87h6.41v6.5Z"/><path class="cls-2" d="M425.89,85.06h6.59a9.23,9.23,0,0,1-3,6.65,12.61,12.61,0,0,1-15.58-.7c-2-2-3-4.83-3-8.37s1-6.33,3-8.38a10.69,10.69,0,0,1,8.07-3.06,11.13,11.13,0,0,1,7.41,2.28,9,9,0,0,1,3,6.51h-6.68A3.29,3.29,0,0,0,422,76.64a3.45,3.45,0,0,0-3.06,1.49,8.07,8.07,0,0,0-1,4.51A7.61,7.61,0,0,0,419,87.12a3.68,3.68,0,0,0,3.19,1.52,3.51,3.51,0,0,0,2.57-.93A4.08,4.08,0,0,0,425.89,85.06Z"/><path class="cls-2" d="M440.54,82.28a2.6,2.6,0,0,1,4,0,6,6,0,0,1,.63,3.15,6.14,6.14,0,0,1-.63,3.19,2.22,2.22,0,0,1-2,1,2.19,2.19,0,0,1-2-1,6.2,6.2,0,0,1-.61-3.19A6.1,6.1,0,0,1,440.54,82.28Zm-4.62,9.46a10.73,10.73,0,0,0,13.28,0,8.28,8.28,0,0,0,2.42-6.3,8.2,8.2,0,0,0-2.42-6.26,10.79,10.79,0,0,0-13.29,0,8.2,8.2,0,0,0-2.42,6.26A8.25,8.25,0,0,0,435.92,91.74Z"/><path class="cls-2" d="M453.48,93.48v-16h5.89v2.93a5,5,0,0,1,1.81-2.54,5.6,5.6,0,0,1,3.16-.8h.58V83.4l-.68-.05-.62,0a4,4,0,0,0-2.83.87,3.6,3.6,0,0,0-.91,2.72v6.57Z"/><path class="cls-2" d="M477.29,88.19a2.25,2.25,0,0,1-2,.91,2.29,2.29,0,0,1-2-.9,4.57,4.57,0,0,1-.65-2.71,4.84,4.84,0,0,1,.64-2.81,2.35,2.35,0,0,1,2-.89,2.21,2.21,0,0,1,1.93.91,5,5,0,0,1,.64,2.79A4.55,4.55,0,0,1,477.29,88.19Zm-4.58,11.73V92a5.18,5.18,0,0,0,1.93,1.55,6.3,6.3,0,0,0,2.59.5,6.37,6.37,0,0,0,5.17-2.31,9.35,9.35,0,0,0,1.93-6.2,9.3,9.3,0,0,0-1.93-6.13,6.26,6.26,0,0,0-5-2.33,7,7,0,0,0-3,.59,5.89,5.89,0,0,0-2.2,1.87v-2h-5.64V99.92Z"/><path class="cls-2" d="M486.19,93.48V87h6.4v6.5Z"/></g></g></svg>