<svg xmlns="http://www.w3.org/2000/svg" viewBox="0 0 212 58.04"><defs><style>.cls-1{fill:#fff;stroke:#b01000;stroke-width:7.63px;}.cls-2{fill:#b01000;}</style></defs><g id="Layer_2" data-name="Layer 2"><g id="Layer_2-2" data-name="Layer 2"><path class="cls-1" d="M183,54.23A25.21,25.21,0,0,0,208.19,29h0A25.21,25.21,0,0,0,183,3.81H29A25.21,25.21,0,0,0,3.81,29h0A25.21,25.21,0,0,0,29,54.23Z"/><path class="cls-2" d="M24.25,41V17.41h6.21L41.9,33.14V17.41h5.92V41H41.43L30.18,25.58V41Z"/><path class="cls-2" d="M53.41,21.63V17.41h6.07v4.22Zm0,19.35V23.88h6.07V41Z"/><path class="cls-2" d="M83.25,41H77.18V32.25a10.31,10.31,0,0,0-.38-3.59,2.74,2.74,0,0,0-1.23-1.27,4.38,4.38,0,0,0-2.06-.45,5.84,5.84,0,0,0-2.77.65c-.82.43-.84,1-1.14,1.71a11.47,11.47,0,0,0-.46,3.94V41H63.08V23.88h5.66v2.5a9,9,0,0,1,6.9-2.91,11.57,11.57,0,0,1,3.63.54,6.18,6.18,0,0,1,2.48,1.37,4.61,4.61,0,0,1,1.17,1.91,10.79,10.79,0,0,1,.33,3Z"/><path class="cls-2" d="M145.17,41h-6.06V32.25a10.57,10.57,0,0,0-.38-3.59,2.82,2.82,0,0,0-1.24-1.27,4.38,4.38,0,0,0-2.06-.45,5.87,5.87,0,0,0-2.77.65A3.48,3.48,0,0,0,131,29.3a11.47,11.47,0,0,0-.46,3.94V41h-6.06V23.88h5.66v2.5a10.18,10.18,0,0,1,7.45-2.91,11.51,11.51,0,0,1,3.62.54,6.11,6.11,0,0,1,2.48,1.37,4.61,4.61,0,0,1,1.17,1.91,10.79,10.79,0,0,1,.33,3Z"/><polygon class="cls-2" points="100.23 22.89 96.31 22.89 96.31 19.52 90.25 19.52 90.25 22.89 86.33 22.89 86.33 24.8 90.25 24.8 90.25 40.98 96.31 40.98 96.31 24.8 100.23 24.8 100.23 22.89"/><path class="cls-2" d="M181.37,24.6c-5.48,0-9.93,3.67-9.93,8.19S175.89,41,181.37,41s9.92-3.67,9.92-8.19S186.85,24.6,181.37,24.6Zm2.38,11.66a2.39,2.39,0,1,1-4.77,0V29.31a2.39,2.39,0,0,1,4.77,0Z"/><path class="cls-2" d="M161.08,16.87v8.25a11.54,11.54,0,0,0-3.46-.52c-5.48,0-9.93,3.67-9.93,8.19S152.14,41,157.62,41a11.87,11.87,0,0,0,3.46-.52v.32h6.06V16.87ZM160,37.08a2.39,2.39,0,0,1-4.77,0V28.5a2.39,2.39,0,1,1,4.77,0Z"/><path class="cls-2" d="M120.91,33a1.09,1.09,0,0,0,0-.18c0-4.52-4.44-8.19-9.92-8.19s-9.93,3.67-9.93,8.19S105.52,41,111,41c4.59,0,8.44-2.58,9.58-6.07h-7.2v1.35a2.39,2.39,0,1,1-4.77,0V32.94h4.77v0Zm-12.3-2.42V29.31a2.39,2.39,0,0,1,4.77,0v1.24Z"/><path class="cls-2" d="M193.78,22.58a3,3,0,0,1-4.26,0,3,3,0,0,1,0-4.28,3,3,0,0,1,4.26,4.28Zm1.13-4a3.7,3.7,0,0,0-1.38-1.37,3.75,3.75,0,0,0-5.12,1.37,3.72,3.72,0,0,0,0,3.76,3.61,3.61,0,0,0,1.37,1.37,3.7,3.7,0,0,0,3.75,0,3.7,3.7,0,0,0,1.38-1.37,3.78,3.78,0,0,0,0-3.76ZM190,22.44h1V20.87h.12a.51.51,0,0,1,.38.22,9.2,9.2,0,0,1,.76,1.36h1.19c-.43-.76-.65-1.14-.65-1.15a1.89,1.89,0,0,0-.33-.41,1,1,0,0,0-.34-.19,1.51,1.51,0,0,0,.83-.42,1,1,0,0,0,.27-.7,1.07,1.07,0,0,0-.34-.82,1.61,1.61,0,0,0-1.1-.31H190Zm1-3.3h.46a.84.84,0,0,1,.56.14.44.44,0,0,1,.17.35A.45.45,0,0,1,192,20a1,1,0,0,1-.6.14H191Z"/></g></g></svg>