<svg xmlns="http://www.w3.org/2000/svg" viewBox="0 0 295.3 80.09"><defs><style>.cls-1{fill:#231f20;}.cls-2,.cls-5{fill:#fff;}.cls-3{fill:none;stroke:#231f20;stroke-width:1.64px;}.cls-4{fill:#ef4123;}.cls-5{font-size:9.82px;font-family:Helvetica;}</style></defs><g id="Layer_2" data-name="Layer 2"><g id="Layer_2-2" data-name="Layer 2"><rect class="cls-1" width="295.3" height="80.09"/><path class="cls-2" d="M35.6,35.83V44H23.5v1.25s12.1-1.64,12.1,9.15c0,8.55-8.81,9.17-8.81,9.17H14.48V55.29H26.79V54s-12.31,1.37-12.31-8.71c0-8.91,9-9.5,9-9.5Z"/><path class="cls-3" d="M35.58,40.24H23.22c-4.79,0-7.42,9.34,1.94,9.34S31.9,59,27.43,59h-13"/><path class="cls-2" d="M57.4,35.83v8.22H46.6s-.46,1.35,0,1.35h8.63v8.65H46.38s-.16,1.28.36,1.28H57.4v8.36H44.91c-1.13,0-7.56-1.13-7.56-7.34V43.45c0-6,6.46-7.62,7.94-7.62Z"/><path class="cls-3" d="M57.43,40.37H45.73c-2.5,0-4,1.56-4,3.54V55.69A3.61,3.61,0,0,0,45,59.1H57.41"/><line class="cls-3" x1="41.64" y1="49.58" x2="55.24" y2="49.58"/><path class="cls-2" d="M79.42,35.92v27.7H65.74c-2.73,0-7.07-3.35-7.07-7.27l.13-12.53c0-3.74,3.89-7.9,7.59-7.9Z"/><path class="cls-2" d="M106,63.61,98,39c-1.46-4.39-9.27-4.3-10.68,0l-9,24.63h9.77l2.33-6.67-.15,6.67ZM93.69,55.39H91.26l1.25-3.58Z"/><polyline class="cls-3" points="79.45 45.05 68.02 45.05 68.02 54.24 70.39 54.24"/><path class="cls-3" d="M68,49.64h6.81v9.41H66.31a3.47,3.47,0,0,1-3.21-3.63V44c0-2,1.67-3.56,4.17-3.56H79.45"/><path class="cls-3" d="M83.38,63.78l8-23.11c.66-1.79,2.06-1.13,2.43,0l5.88,18.41H90.28"/><path class="cls-4" d="M164.26,40.83a3.65,3.65,0,1,0-3.65-3.65A3.64,3.64,0,0,0,164.26,40.83Z"/><path class="cls-2" d="M172,43.67v0H154.55c-3.05,0-3.53-3.82-3.53-3.82h-6.6s.68,10.33,10.13,10.33h13.51c.7,0,.41.65,0,1.28a17.19,17.19,0,1,1,4.39-11.59h6.77a23.89,23.89,0,1,0-.27,3.78Z"/><path class="cls-2" d="M185,46.31V43.92h-6.31V62.84H185V53.17c.55-.9,2.36-3.39,5.38-3.13V43.41C188.49,43,185.83,45.45,185,46.31Z"/><path class="cls-2" d="M204.06,55.84a4.8,4.8,0,0,1-6.65,1.81l12-7.26a9.9,9.9,0,1,0,0,5.45Zm-4.21-7.16a4.85,4.85,0,0,1,2.22.54l-7,4.16A4.81,4.81,0,0,1,199.85,48.68Z"/><rect class="cls-2" x="238.67" y="17.66" width="7" height="45.19"/><rect class="cls-2" x="248" y="44.18" width="6.51" height="18.3"/><path class="cls-2" d="M251.19,40.83a3.65,3.65,0,1,0-3.65-3.65A3.65,3.65,0,0,0,251.19,40.83Z"/><path class="cls-2" d="M273.85,48.34c0-6.1-8-5.94-9.35-3.52-.35.6-.72.18-.72.18a1.14,1.14,0,0,0-.19-.37v-.7h-6.26V62.84h6.26V49.93c0-1.66,3.76-2.07,3.76-.3v13h6.5Z"/><path class="cls-2" d="M226.85,44.94a1.94,1.94,0,0,1-1.56,1.18c-1.75-3.65-7.66-3.23-8.85-1.18-.35.61-.71.19-.71.19a1,1,0,0,0-.2-.37v-.7h-6.26V63h6.26V50.06c0-1.66,3.77-2.08,3.77-.3v13h.38V63h6.26V50.06c0-1.66,3.76-2.08,3.76-.3v13h6.5V48.47C236.2,42.37,228.24,42.52,226.85,44.94Z"/><polygon class="cls-2" points="129 18.78 107.92 63.97 112.02 63.97 133.09 18.78 129 18.78"/><text class="cls-5" transform="translate(104.96 37.36)">®</text><text class="cls-5" transform="translate(273.6 37.36)">®</text></g></g></svg>