<svg xmlns="http://www.w3.org/2000/svg" viewBox="0 0 539.83 141.3"><defs><style>.cls-1{fill:#fff;}.cls-2{fill:#43a2f6;}</style></defs><g id="Layer_2" data-name="Layer 2"><path d="M539.83.27H448L402,38.18V.27H284.91V54L226.57,0,40.74.18C24,.18,0,13.82,0,37V63.07A32.28,32.28,0,0,0,6.73,82.7H0v58.6l145.12-.11c6.87,0,15-2.31,22.13-6.63v6.64h67.66V87.88l58.65,53.32H402V103.29l46,37.91h91.85L454.32,70.74Z"/><path class="cls-1" d="M523.83,6.18H450.44l-54,44.48V6.18H291.14V67.41L224.38,6.18,40.84,6.12C26,6.12,6,18.37,6,37.09V63.14c0,11.27,7.25,20.18,16.25,25.51H6v38.49s-1,8.23,9.59,8.23l129.65,0c9.52,0,21.12-5,28.26-13.58v13.55H229.4V74.63l66.78,60.73H396.46V90.88l54,44.49h73.39l-78.38-64.6Z"/><path class="cls-2" d="M56.86,55.62h88.36c12.12,0,26.65,10.18,26.65,22.75v26.05c0,12.56-14.53,22.75-26.65,22.75-135.72,0-131,0-131,0V96.87h115a5.61,5.61,0,0,0,4.65-5.49A5.49,5.49,0,0,0,129.22,86l-.84-.06H40.84c-12.12,0-26.65-10.18-26.65-22.75v-26c0-12.56,14.53-22.75,26.65-22.75,135.72,0,131,0,131,0V44.64h-115a5.61,5.61,0,0,0-4.66,5.48,5.49,5.49,0,0,0,4.64,5.43l0,.07Z"/><polyline class="cls-2" points="221.18 14.4 299.36 86.11 299.36 14.4 299.36 14.4 338.84 14.4 338.84 127.14 337.86 127.14 299.36 127.14 221.18 56.04 221.18 127.14 181.7 127.14 181.7 14.4"/><polygon class="cls-2" points="388.24 68.09 453.39 14.4 500.93 14.4 432.52 70.77 500.93 127.14 453.39 127.14 388.24 73.45 388.24 127.14 348.76 127.14 348.76 14.4 388.24 14.4 388.24 68.09 388.24 68.09"/></g></svg>