<svg xmlns="http://www.w3.org/2000/svg" viewBox="0 0 159.87 86.37"><defs><style>.cls-1,.cls-3{fill:#231f20;}.cls-2{fill:#fff;}.cls-3{font-size:14.27px;font-family:ArialMT-Black, ArialMT Black;font-weight:800;}.cls-4{letter-spacing:0em;}.cls-5{letter-spacing:-0.01em;}.cls-6{letter-spacing:0em;}.cls-7{letter-spacing:0.01em;}.cls-8{letter-spacing:-0.01em;}.cls-9{letter-spacing:-0.01em;}.cls-10{letter-spacing:0.01em;}.cls-11{letter-spacing:0em;}.cls-12{letter-spacing:0.02em;}</style></defs><g id="Layer_2" data-name="Layer 2"><g id="Layer_2-2" data-name="Layer 2"><rect class="cls-1" x="0.98" width="158.89" height="52.96"/><path class="cls-2" d="M25.82,11.3A1.81,1.81,0,1,1,24,9.49,1.81,1.81,0,0,1,25.82,11.3Z"/><path class="cls-2" d="M30.16,11.3a1.81,1.81,0,1,1-1.81-1.81A1.81,1.81,0,0,1,30.16,11.3Z"/><path class="cls-2" d="M21.48,11.3a1.81,1.81,0,1,1-1.81-1.81A1.81,1.81,0,0,1,21.48,11.3Z"/><path class="cls-2" d="M17.14,11.3a1.81,1.81,0,1,1-1.81-1.81A1.81,1.81,0,0,1,17.14,11.3Z"/><path class="cls-2" d="M25.82,15.63A1.81,1.81,0,1,1,24,13.83,1.81,1.81,0,0,1,25.82,15.63Z"/><path class="cls-2" d="M30.16,15.63a1.81,1.81,0,1,1-1.81-1.8A1.81,1.81,0,0,1,30.16,15.63Z"/><path class="cls-2" d="M21.48,15.63a1.81,1.81,0,1,1-1.81-1.8A1.81,1.81,0,0,1,21.48,15.63Z"/><path class="cls-2" d="M17.14,15.63a1.81,1.81,0,1,1-1.81-1.8A1.81,1.81,0,0,1,17.14,15.63Z"/><path class="cls-2" d="M17.14,20a1.81,1.81,0,1,1-1.81-1.8A1.81,1.81,0,0,1,17.14,20Z"/><path class="cls-2" d="M25.82,24.31A1.81,1.81,0,1,1,24,22.51,1.81,1.81,0,0,1,25.82,24.31Z"/><path class="cls-2" d="M21.48,24.31a1.81,1.81,0,1,1-1.81-1.8A1.81,1.81,0,0,1,21.48,24.31Z"/><path class="cls-2" d="M17.14,24.31a1.81,1.81,0,1,1-1.81-1.8A1.81,1.81,0,0,1,17.14,24.31Z"/><path class="cls-2" d="M25.82,28.65A1.81,1.81,0,1,1,24,26.84,1.81,1.81,0,0,1,25.82,28.65Z"/><path class="cls-2" d="M30.16,28.65a1.81,1.81,0,1,1-1.81-1.81A1.81,1.81,0,0,1,30.16,28.65Z"/><path class="cls-2" d="M21.48,28.65a1.81,1.81,0,1,1-1.81-1.81A1.81,1.81,0,0,1,21.48,28.65Z"/><path class="cls-2" d="M17.14,28.65a1.81,1.81,0,1,1-1.81-1.81A1.81,1.81,0,0,1,17.14,28.65Z"/><path class="cls-2" d="M25.82,33A1.81,1.81,0,1,1,24,31.18,1.81,1.81,0,0,1,25.82,33Z"/><path class="cls-2" d="M30.16,33a1.81,1.81,0,1,1-1.81-1.81A1.81,1.81,0,0,1,30.16,33Z"/><path class="cls-2" d="M25.82,37.33A1.81,1.81,0,1,1,24,35.52,1.81,1.81,0,0,1,25.82,37.33Z"/><path class="cls-2" d="M30.16,37.33a1.81,1.81,0,1,1-1.81-1.81A1.81,1.81,0,0,1,30.16,37.33Z"/><path class="cls-2" d="M21.48,37.33a1.81,1.81,0,1,1-1.81-1.81A1.81,1.81,0,0,1,21.48,37.33Z"/><path class="cls-2" d="M17.14,37.33a1.81,1.81,0,1,1-1.81-1.81A1.81,1.81,0,0,1,17.14,37.33Z"/><path class="cls-2" d="M25.82,41.67A1.81,1.81,0,1,1,24,39.86,1.81,1.81,0,0,1,25.82,41.67Z"/><path class="cls-2" d="M38.84,11.3A1.81,1.81,0,1,1,37,9.49,1.81,1.81,0,0,1,38.84,11.3Z"/><path class="cls-2" d="M38.84,15.63A1.81,1.81,0,1,1,37,13.83,1.81,1.81,0,0,1,38.84,15.63Z"/><path class="cls-2" d="M43.18,11.3a1.81,1.81,0,1,1-1.81-1.81A1.81,1.81,0,0,1,43.18,11.3Z"/><path class="cls-2" d="M43.18,15.63a1.81,1.81,0,1,1-1.81-1.8A1.81,1.81,0,0,1,43.18,15.63Z"/><path class="cls-2" d="M47.52,11.3a1.81,1.81,0,1,1-1.81-1.81A1.81,1.81,0,0,1,47.52,11.3Z"/><path class="cls-2" d="M47.52,15.63a1.81,1.81,0,1,1-1.81-1.8A1.81,1.81,0,0,1,47.52,15.63Z"/><path class="cls-2" d="M47.52,20a1.81,1.81,0,1,1-1.81-1.8A1.81,1.81,0,0,1,47.52,20Z"/><path class="cls-2" d="M47.52,24.31a1.81,1.81,0,1,1-1.81-1.8A1.81,1.81,0,0,1,47.52,24.31Z"/><path class="cls-2" d="M47.52,28.65a1.81,1.81,0,1,1-1.81-1.81A1.81,1.81,0,0,1,47.52,28.65Z"/><path class="cls-2" d="M47.52,33a1.81,1.81,0,1,1-1.81-1.81A1.81,1.81,0,0,1,47.52,33Z"/><path class="cls-2" d="M47.52,37.33a1.81,1.81,0,1,1-1.81-1.81A1.81,1.81,0,0,1,47.52,37.33Z"/><path class="cls-2" d="M47.52,41.67a1.81,1.81,0,1,1-1.81-1.81A1.81,1.81,0,0,1,47.52,41.67Z"/><path class="cls-2" d="M51.85,11.3a1.81,1.81,0,1,1-1.8-1.81A1.8,1.8,0,0,1,51.85,11.3Z"/><path class="cls-2" d="M51.85,15.63a1.81,1.81,0,1,1-1.8-1.8A1.8,1.8,0,0,1,51.85,15.63Z"/><path class="cls-2" d="M51.85,20a1.81,1.81,0,1,1-1.8-1.8A1.8,1.8,0,0,1,51.85,20Z"/><path class="cls-2" d="M51.85,24.31a1.81,1.81,0,1,1-1.8-1.8A1.8,1.8,0,0,1,51.85,24.31Z"/><path class="cls-2" d="M51.85,28.65a1.81,1.81,0,1,1-1.8-1.81A1.8,1.8,0,0,1,51.85,28.65Z"/><path class="cls-2" d="M51.85,33a1.81,1.81,0,1,1-1.8-1.81A1.8,1.8,0,0,1,51.85,33Z"/><path class="cls-2" d="M51.85,37.33a1.81,1.81,0,1,1-1.8-1.81A1.8,1.8,0,0,1,51.85,37.33Z"/><path class="cls-2" d="M51.85,41.67a1.81,1.81,0,1,1-1.8-1.81A1.8,1.8,0,0,1,51.85,41.67Z"/><path class="cls-2" d="M56.19,11.3a1.81,1.81,0,1,1-1.8-1.81A1.8,1.8,0,0,1,56.19,11.3Z"/><path class="cls-2" d="M56.19,15.63a1.81,1.81,0,1,1-1.8-1.8A1.8,1.8,0,0,1,56.19,15.63Z"/><path class="cls-2" d="M60.53,11.3a1.81,1.81,0,1,1-1.8-1.81A1.81,1.81,0,0,1,60.53,11.3Z"/><path class="cls-2" d="M60.53,15.63a1.81,1.81,0,1,1-1.8-1.8A1.81,1.81,0,0,1,60.53,15.63Z"/><path class="cls-2" d="M69.21,11.3a1.81,1.81,0,1,1-1.8-1.81A1.81,1.81,0,0,1,69.21,11.3Z"/><path class="cls-2" d="M69.21,15.63a1.81,1.81,0,1,1-1.8-1.8A1.81,1.81,0,0,1,69.21,15.63Z"/><path class="cls-2" d="M69.21,20a1.81,1.81,0,1,1-1.8-1.8A1.81,1.81,0,0,1,69.21,20Z"/><path class="cls-2" d="M69.21,24.31a1.81,1.81,0,1,1-1.8-1.8A1.81,1.81,0,0,1,69.21,24.31Z"/><path class="cls-2" d="M69.21,28.65a1.81,1.81,0,1,1-1.8-1.81A1.81,1.81,0,0,1,69.21,28.65Z"/><path class="cls-2" d="M69.21,33a1.81,1.81,0,1,1-1.8-1.81A1.81,1.81,0,0,1,69.21,33Z"/><path class="cls-2" d="M69.21,37.33a1.81,1.81,0,1,1-1.8-1.81A1.81,1.81,0,0,1,69.21,37.33Z"/><path class="cls-2" d="M69.21,41.67a1.81,1.81,0,1,1-1.8-1.81A1.81,1.81,0,0,1,69.21,41.67Z"/><path class="cls-2" d="M73.55,11.3a1.81,1.81,0,1,1-1.8-1.81A1.81,1.81,0,0,1,73.55,11.3Z"/><path class="cls-2" d="M73.55,15.63a1.81,1.81,0,1,1-1.8-1.8A1.81,1.81,0,0,1,73.55,15.63Z"/><path class="cls-2" d="M73.55,20a1.81,1.81,0,1,1-1.8-1.8A1.81,1.81,0,0,1,73.55,20Z"/><path class="cls-2" d="M73.55,24.31a1.81,1.81,0,1,1-1.8-1.8A1.81,1.81,0,0,1,73.55,24.31Z"/><path class="cls-2" d="M73.55,28.65a1.81,1.81,0,1,1-1.8-1.81A1.81,1.81,0,0,1,73.55,28.65Z"/><path class="cls-2" d="M73.55,33a1.81,1.81,0,1,1-1.8-1.81A1.81,1.81,0,0,1,73.55,33Z"/><path class="cls-2" d="M73.55,37.33a1.81,1.81,0,1,1-1.8-1.81A1.81,1.81,0,0,1,73.55,37.33Z"/><path class="cls-2" d="M73.55,41.67a1.81,1.81,0,1,1-1.8-1.81A1.81,1.81,0,0,1,73.55,41.67Z"/><path class="cls-2" d="M77.89,11.3a1.81,1.81,0,1,1-1.81-1.81A1.81,1.81,0,0,1,77.89,11.3Z"/><path class="cls-2" d="M77.89,15.63a1.81,1.81,0,1,1-1.81-1.8A1.81,1.81,0,0,1,77.89,15.63Z"/><path class="cls-2" d="M77.89,24.31a1.81,1.81,0,1,1-1.81-1.8A1.81,1.81,0,0,1,77.89,24.31Z"/><path class="cls-2" d="M77.89,28.65a1.81,1.81,0,1,1-1.81-1.81A1.81,1.81,0,0,1,77.89,28.65Z"/><path class="cls-2" d="M77.89,37.33a1.81,1.81,0,1,1-1.81-1.81A1.81,1.81,0,0,1,77.89,37.33Z"/><path class="cls-2" d="M77.89,41.67a1.81,1.81,0,1,1-1.81-1.81A1.81,1.81,0,0,1,77.89,41.67Z"/><path class="cls-2" d="M82.23,11.3a1.81,1.81,0,1,1-1.81-1.81A1.81,1.81,0,0,1,82.23,11.3Z"/><path class="cls-2" d="M82.23,15.63a1.81,1.81,0,1,1-1.81-1.8A1.81,1.81,0,0,1,82.23,15.63Z"/><path class="cls-2" d="M82.23,24.31a1.81,1.81,0,1,1-1.81-1.8A1.81,1.81,0,0,1,82.23,24.31Z"/><path class="cls-2" d="M82.23,28.65a1.81,1.81,0,1,1-1.81-1.81A1.81,1.81,0,0,1,82.23,28.65Z"/><path class="cls-2" d="M82.23,37.33a1.81,1.81,0,1,1-1.81-1.81A1.81,1.81,0,0,1,82.23,37.33Z"/><path class="cls-2" d="M82.23,41.67a1.81,1.81,0,1,1-1.81-1.81A1.81,1.81,0,0,1,82.23,41.67Z"/><path class="cls-2" d="M86.57,11.3a1.81,1.81,0,1,1-1.81-1.81A1.81,1.81,0,0,1,86.57,11.3Z"/><path class="cls-2" d="M86.57,15.63a1.81,1.81,0,1,1-1.81-1.8A1.81,1.81,0,0,1,86.57,15.63Z"/><path class="cls-2" d="M86.57,24.31a1.81,1.81,0,1,1-1.81-1.8A1.81,1.81,0,0,1,86.57,24.31Z"/><path class="cls-2" d="M86.57,28.65a1.81,1.81,0,1,1-1.81-1.81A1.81,1.81,0,0,1,86.57,28.65Z"/><path class="cls-2" d="M86.57,37.33a1.81,1.81,0,1,1-1.81-1.81A1.81,1.81,0,0,1,86.57,37.33Z"/><path class="cls-2" d="M86.57,41.67a1.81,1.81,0,1,1-1.81-1.81A1.81,1.81,0,0,1,86.57,41.67Z"/><path class="cls-2" d="M95.25,11.3a1.81,1.81,0,1,1-1.81-1.81A1.81,1.81,0,0,1,95.25,11.3Z"/><path class="cls-2" d="M95.25,15.63a1.81,1.81,0,1,1-1.81-1.8A1.81,1.81,0,0,1,95.25,15.63Z"/><path class="cls-2" d="M95.25,20a1.81,1.81,0,1,1-1.81-1.8A1.81,1.81,0,0,1,95.25,20Z"/><path class="cls-2" d="M95.25,24.31a1.81,1.81,0,1,1-1.81-1.8A1.81,1.81,0,0,1,95.25,24.31Z"/><path class="cls-2" d="M95.25,28.65a1.81,1.81,0,1,1-1.81-1.81A1.81,1.81,0,0,1,95.25,28.65Z"/><path class="cls-2" d="M95.25,33a1.81,1.81,0,1,1-1.81-1.81A1.81,1.81,0,0,1,95.25,33Z"/><path class="cls-2" d="M95.25,37.33a1.81,1.81,0,1,1-1.81-1.81A1.81,1.81,0,0,1,95.25,37.33Z"/><path class="cls-2" d="M95.25,41.67a1.81,1.81,0,1,1-1.81-1.81A1.81,1.81,0,0,1,95.25,41.67Z"/><path class="cls-2" d="M99.59,11.3a1.81,1.81,0,1,1-1.81-1.81A1.81,1.81,0,0,1,99.59,11.3Z"/><path class="cls-2" d="M99.59,15.63a1.81,1.81,0,1,1-1.81-1.8A1.81,1.81,0,0,1,99.59,15.63Z"/><path class="cls-2" d="M99.59,20a1.81,1.81,0,1,1-1.81-1.8A1.81,1.81,0,0,1,99.59,20Z"/><path class="cls-2" d="M99.59,24.31a1.81,1.81,0,1,1-1.81-1.8A1.81,1.81,0,0,1,99.59,24.31Z"/><path class="cls-2" d="M99.59,28.65a1.81,1.81,0,1,1-1.81-1.81A1.81,1.81,0,0,1,99.59,28.65Z"/><path class="cls-2" d="M99.59,33a1.81,1.81,0,1,1-1.81-1.81A1.81,1.81,0,0,1,99.59,33Z"/><path class="cls-2" d="M99.59,37.33a1.81,1.81,0,1,1-1.81-1.81A1.81,1.81,0,0,1,99.59,37.33Z"/><path class="cls-2" d="M99.59,41.67a1.81,1.81,0,1,1-1.81-1.81A1.81,1.81,0,0,1,99.59,41.67Z"/><path class="cls-2" d="M103.93,11.3a1.81,1.81,0,1,1-1.81-1.81A1.81,1.81,0,0,1,103.93,11.3Z"/><path class="cls-2" d="M103.93,15.63a1.81,1.81,0,1,1-1.81-1.8A1.81,1.81,0,0,1,103.93,15.63Z"/><path class="cls-2" d="M103.93,24.31a1.81,1.81,0,1,1-1.81-1.8A1.81,1.81,0,0,1,103.93,24.31Z"/><path class="cls-2" d="M103.93,28.65a1.81,1.81,0,1,1-1.81-1.81A1.81,1.81,0,0,1,103.93,28.65Z"/><path class="cls-2" d="M108.27,11.3a1.81,1.81,0,1,1-1.81-1.81A1.81,1.81,0,0,1,108.27,11.3Z"/><path class="cls-2" d="M108.27,15.63a1.81,1.81,0,1,1-1.81-1.8A1.81,1.81,0,0,1,108.27,15.63Z"/><path class="cls-2" d="M108.27,24.31a1.81,1.81,0,1,1-1.81-1.8A1.81,1.81,0,0,1,108.27,24.31Z"/><path class="cls-2" d="M108.27,28.65a1.81,1.81,0,1,1-1.81-1.81A1.81,1.81,0,0,1,108.27,28.65Z"/><path class="cls-2" d="M112.61,11.3a1.81,1.81,0,1,1-1.81-1.81A1.81,1.81,0,0,1,112.61,11.3Z"/><path class="cls-2" d="M112.61,15.63a1.81,1.81,0,1,1-1.81-1.8A1.81,1.81,0,0,1,112.61,15.63Z"/><path class="cls-2" d="M112.61,20a1.81,1.81,0,1,1-1.81-1.8A1.81,1.81,0,0,1,112.61,20Z"/><path class="cls-2" d="M112.61,24.31a1.81,1.81,0,1,1-1.81-1.8A1.81,1.81,0,0,1,112.61,24.31Z"/><path class="cls-2" d="M112.61,28.65a1.81,1.81,0,1,1-1.81-1.81A1.81,1.81,0,0,1,112.61,28.65Z"/><path class="cls-2" d="M112.61,33a1.81,1.81,0,1,1-1.81-1.81A1.81,1.81,0,0,1,112.61,33Z"/><path class="cls-2" d="M112.61,37.33a1.81,1.81,0,1,1-1.81-1.81A1.81,1.81,0,0,1,112.61,37.33Z"/><path class="cls-2" d="M112.61,41.67a1.81,1.81,0,1,1-1.81-1.81A1.81,1.81,0,0,1,112.61,41.67Z"/><path class="cls-2" d="M117,15.63a1.81,1.81,0,1,1-1.81-1.8A1.81,1.81,0,0,1,117,15.63Z"/><path class="cls-2" d="M117,20a1.81,1.81,0,1,1-1.81-1.8A1.81,1.81,0,0,1,117,20Z"/><path class="cls-2" d="M117,24.31a1.81,1.81,0,1,1-1.81-1.8A1.81,1.81,0,0,1,117,24.31Z"/><path class="cls-2" d="M117,33a1.81,1.81,0,1,1-1.81-1.81A1.81,1.81,0,0,1,117,33Z"/><path class="cls-2" d="M117,37.33a1.81,1.81,0,1,1-1.81-1.81A1.81,1.81,0,0,1,117,37.33Z"/><path class="cls-2" d="M117,41.67a1.81,1.81,0,1,1-1.81-1.81A1.81,1.81,0,0,1,117,41.67Z"/><path class="cls-2" d="M125.63,11.3a1.81,1.81,0,1,1-1.81-1.81A1.81,1.81,0,0,1,125.63,11.3Z"/><path class="cls-2" d="M125.63,15.63a1.81,1.81,0,1,1-1.81-1.8A1.81,1.81,0,0,1,125.63,15.63Z"/><path class="cls-2" d="M125.63,20a1.81,1.81,0,1,1-1.81-1.8A1.81,1.81,0,0,1,125.63,20Z"/><path class="cls-2" d="M125.63,24.31a1.81,1.81,0,1,1-1.81-1.8A1.81,1.81,0,0,1,125.63,24.31Z"/><path class="cls-2" d="M125.63,28.65a1.81,1.81,0,1,1-1.81-1.81A1.81,1.81,0,0,1,125.63,28.65Z"/><path class="cls-2" d="M125.63,33a1.81,1.81,0,1,1-1.81-1.81A1.81,1.81,0,0,1,125.63,33Z"/><path class="cls-2" d="M125.63,37.33a1.81,1.81,0,1,1-1.81-1.81A1.81,1.81,0,0,1,125.63,37.33Z"/><path class="cls-2" d="M125.63,41.67a1.81,1.81,0,1,1-1.81-1.81A1.81,1.81,0,0,1,125.63,41.67Z"/><path class="cls-2" d="M130,11.3a1.81,1.81,0,1,1-1.8-1.81A1.8,1.8,0,0,1,130,11.3Z"/><path class="cls-2" d="M130,15.63a1.81,1.81,0,1,1-1.8-1.8A1.8,1.8,0,0,1,130,15.63Z"/><path class="cls-2" d="M130,20a1.81,1.81,0,1,1-1.8-1.8A1.8,1.8,0,0,1,130,20Z"/><path class="cls-2" d="M130,24.31a1.81,1.81,0,1,1-1.8-1.8A1.8,1.8,0,0,1,130,24.31Z"/><path class="cls-2" d="M130,28.65a1.81,1.81,0,1,1-1.8-1.81A1.8,1.8,0,0,1,130,28.65Z"/><path class="cls-2" d="M130,33a1.81,1.81,0,1,1-1.8-1.81A1.8,1.8,0,0,1,130,33Z"/><path class="cls-2" d="M130,37.33a1.81,1.81,0,1,1-1.8-1.81A1.8,1.8,0,0,1,130,37.33Z"/><path class="cls-2" d="M130,41.67a1.81,1.81,0,1,1-1.8-1.81A1.8,1.8,0,0,1,130,41.67Z"/><path class="cls-2" d="M134.3,15.63a1.81,1.81,0,1,1-1.8-1.8A1.81,1.81,0,0,1,134.3,15.63Z"/><path class="cls-2" d="M134.3,20a1.81,1.81,0,1,1-1.8-1.8A1.81,1.81,0,0,1,134.3,20Z"/><path class="cls-2" d="M134.3,24.31a1.81,1.81,0,1,1-1.8-1.8A1.81,1.81,0,0,1,134.3,24.31Z"/><path class="cls-2" d="M138.64,20a1.81,1.81,0,1,1-1.8-1.8A1.81,1.81,0,0,1,138.64,20Z"/><path class="cls-2" d="M138.64,24.31a1.81,1.81,0,1,1-1.8-1.8A1.81,1.81,0,0,1,138.64,24.31Z"/><path class="cls-2" d="M138.64,28.65a1.81,1.81,0,1,1-1.8-1.81A1.81,1.81,0,0,1,138.64,28.65Z"/><path class="cls-2" d="M143,24.31a1.81,1.81,0,1,1-1.81-1.8A1.81,1.81,0,0,1,143,24.31Z"/><path class="cls-2" d="M143,28.65a1.81,1.81,0,1,1-1.81-1.81A1.81,1.81,0,0,1,143,28.65Z"/><path class="cls-2" d="M143,33a1.81,1.81,0,1,1-1.81-1.81A1.81,1.81,0,0,1,143,33Z"/><path class="cls-2" d="M147.32,11.3a1.81,1.81,0,1,1-1.8-1.81A1.81,1.81,0,0,1,147.32,11.3Z"/><path class="cls-2" d="M147.32,15.63a1.81,1.81,0,1,1-1.8-1.8A1.81,1.81,0,0,1,147.32,15.63Z"/><path class="cls-2" d="M147.32,20a1.81,1.81,0,1,1-1.8-1.8A1.81,1.81,0,0,1,147.32,20Z"/><path class="cls-2" d="M147.32,24.31a1.81,1.81,0,1,1-1.8-1.8A1.81,1.81,0,0,1,147.32,24.31Z"/><path class="cls-2" d="M147.32,28.65a1.81,1.81,0,1,1-1.8-1.81A1.81,1.81,0,0,1,147.32,28.65Z"/><path class="cls-2" d="M147.32,33a1.81,1.81,0,1,1-1.8-1.81A1.81,1.81,0,0,1,147.32,33Z"/><path class="cls-2" d="M147.32,37.33a1.81,1.81,0,1,1-1.8-1.81A1.81,1.81,0,0,1,147.32,37.33Z"/><path class="cls-2" d="M147.32,41.67a1.81,1.81,0,1,1-1.8-1.81A1.81,1.81,0,0,1,147.32,41.67Z"/><path class="cls-2" d="M151.66,11.3a1.81,1.81,0,1,1-1.81-1.81A1.81,1.81,0,0,1,151.66,11.3Z"/><path class="cls-2" d="M151.66,15.63a1.81,1.81,0,1,1-1.81-1.8A1.81,1.81,0,0,1,151.66,15.63Z"/><path class="cls-2" d="M151.66,20a1.81,1.81,0,1,1-1.81-1.8A1.81,1.81,0,0,1,151.66,20Z"/><path class="cls-2" d="M151.66,24.31a1.81,1.81,0,1,1-1.81-1.8A1.81,1.81,0,0,1,151.66,24.31Z"/><path class="cls-2" d="M151.66,28.65a1.81,1.81,0,1,1-1.81-1.81A1.81,1.81,0,0,1,151.66,28.65Z"/><path class="cls-2" d="M151.66,33a1.81,1.81,0,1,1-1.81-1.81A1.81,1.81,0,0,1,151.66,33Z"/><path class="cls-2" d="M151.66,37.33a1.81,1.81,0,1,1-1.81-1.81A1.81,1.81,0,0,1,151.66,37.33Z"/><path class="cls-2" d="M151.66,41.67a1.81,1.81,0,1,1-1.81-1.81A1.81,1.81,0,0,1,151.66,41.67Z"/><path class="cls-2" d="M21.48,41.67a1.81,1.81,0,1,1-1.81-1.81A1.81,1.81,0,0,1,21.48,41.67Z"/><path class="cls-2" d="M17.14,41.67a1.81,1.81,0,1,1-1.81-1.81A1.81,1.81,0,0,1,17.14,41.67Z"/><path class="cls-2" d="M12.8,15.63A1.81,1.81,0,1,1,11,13.83,1.81,1.81,0,0,1,12.8,15.63Z"/><path class="cls-2" d="M12.8,20A1.81,1.81,0,1,1,11,18.17,1.81,1.81,0,0,1,12.8,20Z"/><path class="cls-2" d="M12.8,24.31A1.81,1.81,0,1,1,11,22.51,1.81,1.81,0,0,1,12.8,24.31Z"/><path class="cls-2" d="M12.8,37.33A1.81,1.81,0,1,1,11,35.52,1.81,1.81,0,0,1,12.8,37.33Z"/><path class="cls-2" d="M12.8,41.67A1.81,1.81,0,1,1,11,39.86,1.81,1.81,0,0,1,12.8,41.67Z"/><text class="cls-3" transform="translate(0 68.01) scale(0.69 1)">©1980 <tspan class="cls-4" x="41.95" y="0">S</tspan><tspan class="cls-5" x="48.94" y="0">t</tspan><tspan x="53.58" y="0">e</tspan><tspan class="cls-6" x="60.73" y="0">r</tspan><tspan x="65.45" y="0">n Ele</tspan><tspan class="cls-7" x="93.92" y="0">c</tspan><tspan x="100.5" y="0">t</tspan><tspan class="cls-8" x="105.22" y="0">r</tspan><tspan x="109.74" y="0">onic</tspan><tspan class="cls-9" x="135.22" y="0">s</tspan><tspan x="140.71" y="0">, </tspan><tspan class="cls-10" x="146.69" y="0">I</tspan><tspan x="150.24" y="0">n</tspan><tspan class="cls-8" x="158.16" y="0">c</tspan><tspan x="164.41" y="0">.,</tspan><tspan x="0" y="14.79">all </tspan><tspan class="cls-6" x="16.63" y="14.79">r</tspan><tspan x="21.36" y="14.79">ig</tspan><tspan class="cls-11" x="32.67" y="14.79">h</tspan><tspan x="40.53" y="14.79">ts </tspan><tspan class="cls-8" x="53.92" y="14.79">r</tspan><tspan x="58.45" y="14.79">ese</tspan><tspan class="cls-12" x="78.39" y="14.79">r</tspan><tspan class="cls-8" x="83.41" y="14.79">v</tspan><tspan x="90.13" y="14.79">e</tspan><tspan class="cls-8" x="97.28" y="14.79">d</tspan><tspan x="105.18" y="14.79">.</tspan></text></g></g></svg>