<svg xmlns="http://www.w3.org/2000/svg" viewBox="0 0 217.8 84.57"><defs><style>.cls-1,.cls-4,.cls-5{fill:#231f20;}.cls-2,.cls-3{fill:#fffc00;}.cls-3{stroke:#231f20;stroke-width:2.25px;}.cls-4{font-size:17.1px;}.cls-4,.cls-5{font-family:Helvetica-Bold, Helvetica;font-weight:700;}.cls-5{font-size:8px;}</style></defs><g id="Layer_2" data-name="Layer 2"><g id="Layer_2-2" data-name="Layer 2"><polygon class="cls-1" points="0 0.3 17.4 57.3 109.33 80.4 201.3 57.9 217.8 0 0 0.3"/><polygon class="cls-2" points="25.95 3.67 195.15 3.67 109.33 18.52 25.95 3.67"/><polygon class="cls-2" points="5.7 3.79 20.1 53.85 109.33 76.35 199.2 54.52 213.15 3.79 109.33 22.35 5.7 3.79"/><polygon class="cls-3" points="9.2 7.27 22.53 51.73 109.33 72.86 196.77 51.84 209.2 7.27 109.33 25.46 9.2 7.27"/><text class="cls-4" transform="translate(180.75 76.35)">®</text><text class="cls-5" transform="translate(81.42 11)">MADE IN U.S.A.</text><polygon class="cls-1" points="38.48 29.93 38.48 20.93 67.87 26.02 67.95 34.95 57.75 33.08 57.67 52.95 48.3 50.77 48.3 31.35 38.48 29.93"/><polygon class="cls-1" points="120.52 31.43 120.37 40.35 129.97 38.92 130.2 60.98 140.17 58.65 140.02 36.67 148.27 35.63 148.12 26.7 120.52 31.43"/><rect class="cls-1" x="105" y="32.7" width="9.6" height="31.8"/><path class="cls-1" d="M167.1,20.35A16.55,16.55,0,1,0,183.65,36.9,16.55,16.55,0,0,0,167.1,20.35ZM167.55,45a8.06,8.06,0,1,1,8.06-8.06A8.06,8.06,0,0,1,167.55,45Z"/><path class="cls-1" d="M90.3,30.07,78.15,28,68,55.35l9.08,2.32,1.5-4.27,8.92,1.65L88.8,60.6l9.6,2.25Zm-8.55,16,1.87-5.62,1.8,5.85Z"/></g></g></svg>