<svg xmlns="http://www.w3.org/2000/svg" viewBox="0 0 664.2 113.54"><defs><style>.cls-1{fill:#b00301;}</style></defs><g id="Layer_2" data-name="Layer 2"><path class="cls-1" d="M170.64,22.36C161.81,19,152.06,34.91,162,39.08,173.74,44,179.09,25.63,170.64,22.36Z"/><path class="cls-1" d="M289.29,22.36c-8.83-3.4-18.57,12.55-8.67,16.72C292.38,44,297.73,25.63,289.29,22.36Z"/><path class="cls-1" d="M329.77,63.69c.63.89,1.71.47,3.1-1.54s2.48-3.56,4.49-3.56,9.44.46,11,.46,2.79.62,0,5.58-22.45,37.92-21.06,42.72,24-21.21,28.18-27.4S373,54.56,382.56,58.43s.78,27.4.78,27.4,20.64-30.6,30-28.64c14.85,3.1,5.72,26.94,5.72,26.94s22-29.51,31.12-26.47c21.36,7.11-7.61,42.74-8.2,48.6-2,19.82,56.81-61.45,56.81-61.45,2-.93,3.4.47,1.7,3.1s-3.71,4-4,5.57,9.59,22.6,10.37,28.17.93,6.82.62,8.37-1.09,3.4-.62,4.17-.16,1.87,1.39,0,5.87-7,6.65-7.89,2.48,1.55.63,3.72-14.87,23.06-30.66,22.43-17.8-11.29-17-15.47,4.18-6.81,7.58-6.65,6.5,5,5.26,7.43-.77,3.56-3.1,4.79l-2.31,1.24s.62,3.71,3.09,3.87,14.71-16.1,15.8-31-.78-18.43-.78-18.43S462,97.6,455,106s-20.82,10-22.6-1.71C429.82,87.33,447.58,65.71,448,64s-.92-4-5.72-.61-33.75,44.43-35,46.28a6.26,6.26,0,0,1-5.12,2.64c-2,.14-10.67-.31-11.91-.31s-2-1.71-.46-4.65,19-36.69,20.12-41.17-2.94-3.11-6.5.61-29.73,37.31-32,42.26-5.41,3-6.5,3h-9.28c-1.4,0-5.26,1.38-2.32-3.88S375,69.27,375.59,66.63s.63-5.26-3.87-1.23-27.86,35.29-33.28,39.93-11.15,9-17.33,7.12-5.89-12.85-5.89-12.85-1.09-1.23-1.7-.3-10.22,13.78-21.06,13.62-13.3-13.32-12.69-17,1.4-5.48.62-6.51-13.15,22.3-27.86,22.92-6.81-23.7-4-28.8,3.88-5.89,4.18-7.12.32-1.55-1.08-.31-24,33.28-33.12,35.45S202.84,109.2,203.77,101s7.27-22.92,8.51-24.93,0-1.24-.77-.62-23.38,30.34-29.88,34.37-19.82,4-18-9,8.83-23.69,9-24.46-.31-2-1.24-.77-23.69,32.5-31.11,35.29-13.47.93-14.86-7.12,6.5-23.68,7.12-24.77,1.55-2.79,1.55-2.79L123.74,88.77c-.93.15-2.79-.16-2.79-1.24S140.3,62.3,142,60.9a7.47,7.47,0,0,1,4.64-1.69c1.08,0,9.29-.32,11-.16s4.18-.31.31,5.11S139.05,97,137.82,100.38s-2.16,6.5-.62,7.28,11.77-6.34,39-42.89S209.65,9.21,213.67,6.26s12.39-2,14.09-2,1.39.78.16,4-53.41,93.05-52,99.23,18.57-16.41,23.68-22.76,23.84-29.87,28.64-37.14S251.14,8.9,252.68,6.88s2.79-2,4.5-2H267.7c1.24,0,1.4,1.55-.46,4.49s-52.33,88.85-51.09,98.3,42.57-45.2,44-46.9,2-1.55,5-1.87,8.21,0,10.52-.15,3.26.47,1.09,4.33-24.46,41-22,44.75,20.43-17.65,23.68-21.68,22.14-28.79,37.77-28.64c11.87.12,13.2,5.6,13.62,6.19m-7.06-2.27c-8.47-2.71-40.35,46.14-29,48.2C304.26,111.54,338.18,66.37,322.71,61.42Z"/><path class="cls-1" d="M45.25,15.56c1.08-.31,6.5,20.73-.46,36.68C36.83,70.45,6.7,80.93,1.13,63.07-8.47,32.27,45.25-15.41,73,4.87c40.3,29.5-36.68,94-36.68,94S70.79,80,125.59.69c0,0,2.79-.78,2.79,1.55S98.81,81.8,98,92.48c0,0,26-54.17,53.57-69.81,0,0,2.32.15,1.24,1.85s-23.53,14.41-41.65,51.1-18.72,37.92-21.51,37.92S80,100.26,83,84.6c5.27-27.25,25.85-53.88,25.85-53.88S87.68,59.55,45.72,96.2c-23.22,20.28-27.56,16.4-28.33,14.71S44.16,86.3,62.59,40.47c9.34-23.22,3.72-33-2.17-35.29S25.59,3.48,6.39,42C-.77,56.4,4.39,66,9,67.88c9.6,3.87,29.1-13.16,33.44-39.17,1.38-8.3.62-12.23.62-12.23Z"/><path class="cls-1" d="M620.27,22.3A43.94,43.94,0,1,0,664.2,66.23,44,44,0,0,0,620.27,22.3Zm10.45,79.84L620.77,77l-9.92,25.13L586.64,44.74l23.24,16.57,3.53-3-7.12-18,14.43,11.9,14.52-12L628,58.41l3.6,3,23.23-16.52Z"/></g></svg>