<svg xmlns="http://www.w3.org/2000/svg" viewBox="0 0 1227.34 257.5"><defs><style>.cls-1{fill:#231f20;}</style></defs><g id="Layer_2" data-name="Layer 2"><g id="Layer_2-2" data-name="Layer 2"><path class="cls-1" d="M292.75,6.14s-70.33,191.09-70.33,203.63c0,0-.43,6,.87,4.68,0,0,14.85-28.89,32.18-57.87,13.3-22.24,28.06-43.84,38.69-56.6,24.48-29.4,44.68-43.53,50.55-47.17s7.07.25,2.83,3.22S320.28,73.75,297,103.75a529.86,529.86,0,0,0-39.71,59.84c-22.66,39.94-42.71,85.91-42.71,85.91s-7.59,16.77-16.74,1.76C160,173.92,259,63.61,254.84,59.5c-1.54-1.54-49.11,60.17-78.35,91.56-30.72,33-113.85,106.37-132,104.22,0,0-7.07-1.92-1.58-7C87.81,209.8,208.31,18.76,131.42,8.32,56.93-1.79-19.26,114.37,13,149.48c25.36,25.36,64.85-27.3,72.78-46.58,19.5-45.32,13.25-63.56,13.25-63.56-.89-2.94,2.55-6.58,4-2.12,0,0,16.25,49.36-2.9,84.12-13.52,25.24-61.76,61-90.59,32.19C-29.36,114.59,57.62-15.12,141.79,1.59,200,13.15,202,66.32,174.64,116.25,142.87,174.3,77.31,226.54,77.31,226.54c-3.52,2.49.61,3,2.51,1.58,0,0,45.8-28.11,96.12-84.18C214.41,105.47,288.59,1.18,288.59,1.18S296.11-3.62,292.75,6.14Z"/><path class="cls-1" d="M395.41,79.33c-6.47,9.59-18.19,13-26.18,7.61S360,69.41,366.48,59.82s18.19-13,26.18-7.62S401.88,69.73,395.41,79.33Z"/><path class="cls-1" d="M666.24,78.42c-6.47,9.59-18.19,13-26.18,7.61s-9.22-17.53-2.75-27.12,18.19-13,26.18-7.62S672.71,68.82,666.24,78.42Z"/><path class="cls-1" d="M668.89,162.44s-12.53,12.67-32.63,36.33c-24.17,29-46.69,52.64-52.88,48.22C571,238.82,639.7,137.69,636.51,134.5c-1.69-1.69-33.7-2.61-39,2.64-4.1,4.1-17.23,21-36.39,45.13S504.68,254.21,493.71,247C481.29,238.8,617.83,13.31,615.32,10.8c-1.63-1.63-29.71-1.59-35,3.66-2.54,2.54-26,44-54.54,91.92,0,0-25.5,35.55-57.48,75.35-25.91,32.25-53.7,73.78-66,65.26C390,238.82,526.5,13.31,524,10.8c-1.63-1.63-29.71-1.59-35,3.66-2.54,2.54-25.29,43-53.86,90.91,0,0-107.91,152.24-122.79,141.62C300,238.82,368.7,137.69,365.51,134.5c-1.69-1.69-34.71-1.6-40,3.65-6.42,6.42-48.13,60.6-48.13,60.6-2.77,3.59,1.16,6.83,4.15,2.75,0,0,27.07-37.57,28.75-34.53,2.15,3.89-41.63,68.3-13.77,85.42C319,266.16,343.78,233.46,366,205.75c19.11-23.79,37.85-53.13,32.56-38.34-19.44,36.22-32.26,71.44-12,85C409,266.16,433.78,233.46,456,205.75c18.88-23.51,38.18-51.77,33.64-38-19.36,36.06-32.08,71.09-11.79,84.68,22.49,13.77,55.62-25.76,74.69-50.89s27.07-37.57,28.75-34.53c2.15,3.89-41.63,68.3-13.77,85.42C590,266.16,615,233.6,637,205.75c9.85-12.43,7.61-1.35,7.61-1.35Z"/><path class="cls-1" d="M958.81,195.25c-2.27-3.83,18.91-49.14-1.83-61.67-22.9-13.06-45.86,21.68-67.24,50.06-15.1,20-13.87,13.28-13.87,13.28S899.55,145,880,134.45s-43.16,17.48-58.2,38.55-61.42,82.84-72.8,75c-11.2-7.74,56.32-109.3,53.13-112.49-1.69-1.69-31.71-4.9-37,2-1.26,1.65-6.48,15.68-9.45,9.79l-7.92,28-29.73,49.3c5.78-6.54,4.9,1.75,4.9,1.75-1.34,11.28-1,20.73,9.61,27.66,18.72,12.29,48.91-20.35,70.07-47.23,16.6-21.08,50.17-69.79,59.16-64S808.37,247.1,806.63,254.12c-.72,2.73,36.44,1.83,39-1.11,1.49-1.57,77.63-119.44,93.1-111.12,12.68,7.78-51.5,110.05-48.21,113.14,1.73,1.63,35.66,1.22,39.21-2.65,2.67-2.84,73.84-121.21,95.6-114.25,8.47,3.38-8.05,22.62-20.84,45-13.94,24.37-23.26,60.25-1.37,70.95,26.89,12.71,59.41-39.24,82.86-69.28L1128,131c6.23-8.34,12.59,38.35-3,75.76-24.87,61.55-39.77,33.08-37.84,29,17.25-2.87,19.3-27.38,2.17-30.05s-20.06,19.5-13.28,31,21.57,18.67,37.14,18.67c28.22,0,51.7-31.83,58-39.68s12.16-16,12.16-16c2.08-3.29-1.26-4.89-3.45-2.21,0,0-23.26,30.19-19.45,18.48,10.67-44.08-35.73-86.8-20-101.78,15.15-14.43,4.26-17.2-1.11-8.11-5.14,8.73-55.88,71.82-75.37,98.65s-44.42,49-49.63,44.82c-9.8-7.81,14.94-33.24,26.09-57.82s14.61-44.12-2.21-57.39C1011.94,116.05,960.58,198.23,958.81,195.25Z"/><path class="cls-1" d="M744.57,135.54c-17.81-13.3-51.49-1.57-77.19,28.65s-33.51,65.09-15.87,82.73c23.9,23.89,51.08-2.87,76.78-33.09C748.35,190.24,783.38,164.52,744.57,135.54Zm-19.83,70.87c-19.6,30.56-44.17,49.65-53.86,43.33-11.15-7.28,2.09-33.42,21.69-64s36.7-55.57,51.58-45S744.34,175.86,724.74,206.41Z"/><path class="cls-1" d="M1181.69,118.71a22.83,22.83,0,1,0,22.83-22.82A22.85,22.85,0,0,0,1181.69,118.71Zm2,0a20.83,20.83,0,1,1,20.83,20.83A20.85,20.85,0,0,1,1183.69,118.71Z"/><path class="cls-1" d="M1214.91,114.31c0-3.57-2.23-7.19-6.5-7.19h-9.27a5.52,5.52,0,0,0-4,1,3.15,3.15,0,0,0-1.06,2.46v17.82a1.25,1.25,0,1,0,2.5,0v-7h7.66c1.51,0,4,4.21,5.37,8.13a1.24,1.24,0,1,0,2.35-.82,27.74,27.74,0,0,0-3.77-7.31h.17C1212.68,121.4,1214.91,117.84,1214.91,114.31Zm-18.28-3.77a.67.67,0,0,1,.2-.57,3.33,3.33,0,0,1,2.09-.36h9.49c2.75,0,4,2.43,4,4.69s-1.24,4.59-4,4.59h-11.78Z"/></g></g></svg>